<svg fill="none" height="33" width="40" xmlns="http://www.w3.org/2000/svg"><path d="M7.258.38l.265.15.432-.054.06-.166.255-.062.164-.215.28-.033.013.29.217.088.165.24-.115.531.037.421.2.044.03.19 1.128.374.538-.102.756.341.279.55.508.255.387-.025.011.138.289-.073.18.106.34-.06.386.114.295-.117.313.076 1.042-.1.391.029.406.215.225-.11.294.598-.072.11.137.26-.028.092-.257.031.285.417.434-.052.096.1.459-.01.37-.195.169-.424.66.018.183-.468-.178-.275.775-.686.037-.122-.14-.171.121-.092.036-.3.186.023.09-.114.238.074.831-.639.415.05.066-.073.175.174.083-.124.284-.034.015-.201.919-.046.323.369.142.387-.002.337.175.103-.194.068-.532-.14-.197.123.104.314.15.084.087.413.472.07.1-.014-.017-.138h.24l.079.115.116-.134.069.199.138-.03.078-.11.212-.026.028-.112.4.18.277-.048 1.12-.583.055-.314.43-.063-.016-.123.184.12.159-.1.117.063.09-.21.21.086.036.524.38-.14.282.067.089.151.655.116.13-.152.124.14.06-.115.462.021.078-.081.175.069.043-.138-.176-.215.113-.029-.07-.167.394-.138.073.09.381.012.29-.32.35.05.042-.382.584.235.222.023.103-.088.353.09.233.68.538-.068.413-.237.604.374.285.034.1-.17.277.116.34-.103.25-.275.355-.142.35.074.535.518.198.433-.108.16.07.162.18.023.038-.158.18.024.523.38.307-.03.08.17-.183.25-.863.403-.117.395.068.315-.114.141.154.404.419-.01.018.877.168.425-.352.15-.126.196.147.166.269-.142.266.044-.176 1.081.154.321-.367.14-.152.192-.62.145.15.267-.135.142.038.097.505.026.206.15.028.23-.003.406-.122.29-.194.017-.178-.129-.182.104.007.138.364.036.072.156-.32.302-.165-.03-.014.111.28.009.125.105-.043-.27.355.028-.013.231.612.425-.043.413.31.02.221.207.297.03.086.172.164.052.063.275-.506.201.277.34-.465.381-.294.017-.08-.221-.3.1-.206-.484-.448.34-.187.38-.26.114.015.257-.3.245-.013.343-.264.45v.3l.392.54-.349.303-.167.026.123.214-.318.106-.063.112-.15-.105-.23.102-.477-.465-.39-.09-.185-.24.219-.143-.022-.837-.09-.132-.274.066-.007-.358.413-.342-.111-.287.202-.366.054-.533-.16-.327-.543-.374-.208-.292-.218-.05-.489.146-.202.367-.221-.084-.048-.147-.35.264-.493-.38-.265.029-.046-.127-.296-.116-.035.442-.145.182.078.123-.219.036-.363-.347-.41-.061-.124-.114-.186.052.126-.171-.057-.331-.257-.096-.277.06-.064-.528-.295-.105-.332.062-.548-.262-.375-.022-.157.148-.086-.12-.381-.104-.066-.22-.233-.022-.08-.167-.124.341.218.054.14.3-.11.349-.288.123-.078.137.2.304v.168l-.155.07.145.525-.615.23.072.412-.131.491-.426-.094-.151.066-.026-.15-.47-.362-.428.202.005.092.213.087-.186.062-.101.3.057.083-.132.232.082.235-.22-.062-.027.261-.172-.055-.021.172.048.242.242-.004-.022.169.2-.015-.065.21.2.015.295.443-.51.076-.248.633-.14-.118-.12.16.018.622-.383.14-.042-.13-.25.026.018.376-.12-.049-.147.105.19.092-.288.092.142.049-.173.351.23.16-.082.137-.197-.079.004.145-.218.094-.14-.238-.377-.021.25-.4-.197-.061v-.241l-.134.089-.12-.12-.375.23.024.196-.241.296.052.178-.173-.015-.1.33-.264.11.065.216-.249.002-.12-.16-.043.107-.175-.132-.164.019-.153.351.221.097-.103.12.037.174-.179.033-.006.604-.552.239-.3-.152-.016.21.246.156-.124.2-.228.027.058.229-.144.056-.036.235-.133-.04-.237-.41-.2.337v-.296l-.24.006v.223l-.182.008.015.27-.294.083-.064.205-.407.048.04.266.127.104-.11.142.153.004-.214.126.014.186.191-.01-.054.301.224.03-.128.293-.142.007-.042-.2-.329.099-.152-.225-.35.132.017.263-.062-.223-.203-.13-.206.185-.117-.123-.6.153-.181-.15-.031-.324-.123.16-.18-.189-.11.269-.316-.264-.223.048-.066-.231-.204-.1-.095.436-.181.046.03.168.137.038-.034.2.261.212.011.27-.165.195.245.386v.16l-.169.134.138.003.012.384-.144.047-.167-.095-.005-.17-.164-.024-.026.224-.378.106-.12-.216-.178.111-.176-.065-.24.121-.276-.011-.028.409-.325.172-.158-.009.031-.16h-.236l-.246-.381-.284.116-.008-.08-.446.002-.055.079.195.102-.015.14-.253.112.058.436-.335-.004-.76.282-.01.204-.173.19.144.168-.23-.012-.032.157-.302.121-.11-.412-.26.034-.1-.174-.024.284-.334.133-.066.257-.133-.055.015-.092-.176.018-.074.26-.183-.215.045.209-.158.043.076.095.15-.134-.017.22.207.035.018.262.129.031-.036.15-.09-.131-.086.058-.012.274.125.17-.073.119.095-.12.33.056.006.117.391.134.048.217-.132.208.016.302-.265-.118-.322.292.106.09.225-.109.164.082-.38.704.095.246-.087.004-.094-.2-.144.199.218.04-.12.355-.352.174-.204-.01-.11-.224-.112.163-.358.179.015.2-.18.038.143.103-.476.23-.142-.032-.143-.168-.116-.49-.305-.04-.082-.243-.158.301-.742.068-.154-.108.127-.042-.409-.8-.39-.126-.13-.499-.135-.092.06-.086-.156-.646-.228-.823-.1-.01.181-.21-.192.039-.004-.214-.236-.375.006-.217.122-.05-.126-.177.112-.188-.086-.017-.053-.84-.166-.432.084-.477L3.01 26l.062-.13-.143-.078.213-.26-.157-.175-.206-.781-.166-.166.16-.02.026.11.08-.132-.18-.392-.193-.106.187-.173-.096-.014-.01-.325-.226-.256.151-.135-.2-.28-.064-.291.103-.112-.227-.47-.06-.452-.061.031-.163-.272.04-.206-.235-.362.064-.105-.156-.288.081-.323-.275-.13.022-.312.141.007.082.195.425.1-.065.181.158.182-.038-.408-.125-.2-.3-.016-.203-.321-.18-.095.06-.163-.15-.44.16-.356-.355-.794.069-.554.227.063.12-.182.144.195.059-.101.03-.29-.302.077-.09-.262.24-.033-.088-.196.08-.141.114.059.257-.188-.143-.012-.048-.296-.147.004-.035.157-.224.188-.229-.06-.085.403-.18.172.078-.26-.154-.047.11-.393.058.044.057-.107-.108-.017.053-.264-.227-.372-.01-.58.102-.27-.201-.23-.063-.448.172-.146.03-.18-.104.113-.227-.178-.027-.295.123-.01-.247-1.014L0 11.383l.005-.098.143-.035-.082-.35.252-.204-.042-.507.146-.342.312.06v-.122l.162.02-.003-.213.193-.208.466.07.079.213-.066.21.078.09.137-.112-.035.127.207.221.038-.162.382.076.225.163.148-.358.353-.142.107-.299.203.045.071-.077.033.107.27-.07-.032-.756-.155-.198.186-.125.345-.653-.092-.016-.005-.21-.197-.06-.182-.246.18-.116.067-.236.14-.035.077.33.194-.105.334.195.143.296.165.088.147-.083.23.057.436-.251.035-.267-.11-.139.198-.003.107-.183.171.032.14-.098-.022-.509-.243-.52.055-.224-.437-.067-.042-.138-.16.063-.158-.235.05-.305-.45.03-.347-.31.12-.043.114.226L5 4.571l.27.072.023-.15.393-.026.047-.498.29.026.275-.183.02-.547.078.054.387-.143.09-.326.203.177.097-.081.455.023.031-.107.1.087.379-.172.004-.237-.11-.126-.173.155-.156-.076-.144.099-.107-.148h-.566l-1.014.333-.176-.536-.18-.14.477-.104.052-.289-.316-.328.066-.145-.167-.171L7.258.38z" fill="#777"/></svg>