<svg fill="none" height="40" width="35" xmlns="http://www.w3.org/2000/svg"><path d="M9.724 8.425l.055.656.665.074-.112.68.97-.137 1.04 1.05L14 7.291h.493l1.777-2.255-.096-.725-.748-.019.096-.875 2.37-.612 1.432.257.884-.32.082-.537 1.394.79.12.585.91.196.419-.685.679.062.39 1.132 1.405-.248.523.373 2.087-1.045.19-1.087.86-.627.612.1L31.2 0l.442.138-.383 1.012.375.02-.771 1.258.033 1.587 1.476 1.02.966.13-.168.944-.832.626-.896 3.715 3.132 1.714-.068 2.407-.763 1.014.31.773-1.586 2.16-.527 2.595-1.17.12-.381 1.812-1.29 1.225-.702 1.769-.511.118.01 1.435-.754.462.352.435-1.114.87.032.998-1.276 2.679-.34 2.648-.964 2.282-.492.057-.182 1.763-.76.214-.518-1.088-2.78-1.213-.915-.148-1.78.584-1.152-1.706-2.665-.102-.334.958-.78-.43-.948.909-.903-.573-1.045-2.257-1.203-.395-.388.16.067.788-.962.04-.643.595.221-.781-.362-.538-.473.028-.14.729-.915-.106-.429-.71-.918.922-.42-1.241-.504.263L0 34.17l.897-2.043-.275-1.512.687-1.352-.427-.073.055-.939-.466-.274.756-.17-.067-1.847.722-1.379-.227-.296.897-.188-.617-.273.573-1.704-.563-.754.612-.68.05-1.464.252-.217.591.648.868-.464-.003-.975.623-.449.473-.896-.26-.433.438-.27-.265-1.456.378-.667.712.036.609-1.035 1.035-3.247z" fill="#777"/></svg>