<svg fill="none" height="17" width="40" xmlns="http://www.w3.org/2000/svg"><path d="M.65 8.577l1.974-.863-1.673-1.98.549-.143.291-.446-.143-.746.855-.334.182-.28-.23-.196 1.528-1.234.856.251 1.902-.446.545-.538.423-.057.43.375.654-.392.766.856-.294.923.938-.95.624.335-.301.376.244.2.822-.777.823-.096-.093.629.503.103.427-.656.361.209.62-.202.485.574-.044-.446.36-.066.331.903.829-.013-.381.982.647-.397.396-.057-.385.355.18.127 1.786-.577-.222 1.235.162.697.427.091.694-.35.777-1.372 1.145-.237.342.204 1.087-.475.057-.25-.294.331-.443-.057.759-.783-.398.044.994-1.68.755.16.078.86-.36.373.781.516.682-.727L25.61.89 26.789 0l.758.314-.076.682.697.787.925-.62.828.123 1.077-.196.605-.503.843.254.754-.249-1.89 2.01.097.493.83.07-.613.551-.358.858.102 2.102.916-.662 1.402-.134.69-.424.646.33-.014.604.447.128.486.887.75.163.2.768.402.045.683-.518-.118.815-1.036 1.042.412-.062.147.82.606-.28.078.372.183-.1.595.626.254-.093.315.684.32.04.105.704-.37.532.533.446-1.844.628-.607.881-1.3-.331.245.6-.787-.126-.282 1.053-.5.078-1.056-.302.009-.386-1.534-.278-2.23-1.38-3.827.322-.388-.172-.12.425-.491-.113-.842.536-.523-.343.159-.447-1.922.624-.728-.537-1.039-.033-.92-.476-2.564.101-2.89.615-1.094-.413-.62.438-.623-.256-2.36-.05-.864.453-1.487-.727-3.035-.496-1.93-1.131-1.837.109.176-.217L0 10.942l.448-1.35.334-.187z" fill="#777"/></svg>