<svg fill="none" height="40" width="17" xmlns="http://www.w3.org/2000/svg"><path d="M.53 4.218l1.792-.022.203 1.577.63.173.071-.327.652-.238.272-1.072.868-.116.181-1.243.947-.347L7.208 0l.908 2.244.483-.34.603.078.09-.29.344.273.924-.12.34.2-.04.684.31.053-.5.986.2 1.102-.654 1.49 1.102.378.367-.192.306.905.67-.673.312.518.668.078.101-.532.345-.02.264.392-.16.57.468-.434.701-.03-.042 1.04.916.884.095 2.633.56 1.235-.676 3.88.242.704-.69.521.413 2.024-.296 1.149.28.182-1.367 2.06-.634-.01-.837-.835-.877.198-.053.725.558 1.266-.422.092-.321 1.5-.242.092.192 1.025-.299.54.75 1.708-.465 1.037.313.183.12.876.694.555.252 2.565-.875.225.324.716-.22.337-1.103-.492-.433.192.27 1.473-.745-.002-.057 1.821-.303.016-.46-.724-.343.191L9.283 40l-.615-1.834-.33.03-1.805-1.375-.264.066-.214 2.009-1.064.632-.067-1.243-.492-1.101.245-.163.318.283.056-.796-1.174-6.011.003-1.45-.289-1.244-.382-.212-.384-1.098-.144-1.121-.209.102-.163-.514-.656-.228.26-1.912-.397-.742-.067-2.043.677-.133-.51-1.194.107-.615-.814-1.731-.328-2.359-.267-.075.197-.976-.381-.56L0 11.045l.39-.028-.17-.504.244-.35.402.088.156-.718-.28-.761.25-.454-.212-.705.323-1.753z" fill="#777"/></svg>