<svg fill="none" height="32" width="40" xmlns="http://www.w3.org/2000/svg"><path d="M1.502 7.807l1.88.21 1.302-.265.52-.143.548-.854.47.244.542 1.24.26-.221.051-.337.286.284-.055-.348.133-.078.251.191.15-.17.191.212.198-.2-.094-.118.205-.016.287.6-.277.208-.009.283.32.186-.131.073.179.262.398.058.347.289-.044.263.32-.07.335.489.275-.496-.034-.348.38-.073.058-.269.738.177.178-.593 1-.693.322.17.015.559.394-.098.154.86.606-.037.188-.344.541-.027.197-.235-.092.503.206.072.688-.476-.16-.316 1.128-.325.005-.28 1.755-.227.273.248.16-.386h.27l.072-.358.758.2-.13-.997.404-.25.346-1.037.348.225.865-.013.624.648.863-.45-.1.363.409-.048.325.39.077.964.53.175.193-.253.402.34.506-.078-.162.245.072.472-.286.44.616.173.557.611.315.1.118-.504.196-.03.147-.878.352-.164.484-.663.563.42.544-.143.166-.4.226-.017.246.24-.047.284.316-.035.151.168.188-.16.298.272-.112-.454.275-.533 1.036.342.397-1.848-.156-.197.31-.316.314-.028.06-.258-.097-1.318.556-.621.337-.155.349.157.278-1.274.4.172.188-.214.691.313.005-.44.198-.206-.122-.312.5.13.067-.471.28-.166.232.353.664.011.203.513.65.097.037.245-.095 1.23.864.602.77.936.059.315-.726.413.081.27-.264.015.077.278-.19.279-.166.01.02-.233-.168.207.187.264.525.158-.122.45.23.147-.248.303.147.134-.249.017.32.16-.194.295-.337.11-.678-.29.318.346-.096.513.099-.185.14.153-.329.757.218.074-.462.975-.396.109-.25.431-.391.038.016.292.473.24-.026.343-1.034-.055.328.252-.33.21.06.203-.71-.283-.02.597.165.115-.239.247-.42.05.207.254-.872-.262-.247.125-.107-.08.146-.251-.812-.096.202.708.261.099.024.539-.208.24-.191-.32-.047.762-.208-.044-.258-.094.06-.127-.556-.12.305.447-.152.237-.211-.006-1.353-.662-.262.192-.357-.33-.17.165-.034.172-.434.31-.24-.19.231.663-.238.693-.464.092-.056-.152-.325-.007-.88.22-.541.397-.764-.006-.002.193-.505.233-.197.388-.037.438.157.13-.618.366.122.144-.123.078-.185-.198-.304.202-.16-.151.122-.32-.153.13-.649-.161-.006-.89-.843-.152-.31.303.313.546-.888.366-.67-.147-.027.566.282.37-.253.054.1.386-.444.569.045.637.224.008.494.607 1.049-.132.095.328.762.24.116.395.537.458.738-.2.816.365.199-.192.698.046.128.221.241-.196-.188.401-.291.094-.122-.142-.323.244.26.25-.26.339-.144.785.778.7.281-.178.677.441.29.912.932.031.333.687-.081.227-.378-.012.145.47.703.273-.127.666.49.283-.004.392-.596.026-.039-.136-.017.241-.084.227-.207-.001-.077.022-.381-.036-.616-.167-.048-.262-.47-.125-.108-.215-.396-.003-.28-.398-.528.163-.044.203-.693-.408-.628-.933L23.947 27l-.592-.734-.142.401-.453.194-.136.409.476.294.107.46-.244.343.237.082-.103.181.3.035-.633.585.49.541-.226.71-.498.835-.261.133-.059.355-1.244-.215.234-.813.368.002-.247-.315-1.037.578-.317-.387-.46.148-.444-.113-1.249-.67-.267.038-.044.325-.302-.05-.198.166-.595.993-.173-.399-.33-.232-.014.186-.131-.207-.315.037-.202-.307-.444-.105-.358.287-.193-.044.378-.254.402-1.491.378-.17-.003-.222-.225.001.043-.25-.162-.07-.1-1.21-.928.368-.063-.114-.46.308-.149-.235-.378.157-.213-.19-.473.045-.077.253-1.868-.049-.43.131.008.208-.256.043-.187.282-1.178.107-.367-.34-.451.019-.358-.272-.15-.652-1.14-.466.022-.454.648-.626.598.02.608-.322.041-.619.248-.26.267-.003.38-.9.348-.046.165-.694-.16-.34-.79.129-.062-.259-.467.117-.234-.443-.36.56-.16-1.1-.824-.534.314-1.797-.23-.413-.318.199-.35-.267.032-.697.457-.835-.135-.828-.594.094-.023.558-1.38-.343-.517-.781.126-.68-.292-.62-1.155-.4.13-.201-.288-.13-.31-1.227-.509-.134-.191-.39L0 11.833l.674-1.555-.224-.46.65-.474-.185-.37-.256-.046-.16-.445.099-.431z" fill="#777"/></svg>