<svg fill="none" height="40" width="23" xmlns="http://www.w3.org/2000/svg"><path d="M0 .323L1.095 0l.142.27-.208.274.24.062-.045.123.373-.05-.017.49.309-.056.026-.282.564.193-.067.386.142.146.37-.073.187.56.47-.44.447.238-.446.189.038.412.47.25.052.307.644-.365.07.329-.488.075-.01.4.489.36-.02.72.556.003.822 1.212.51.075.238.459.343-.082.135.342.722-.081.216.778.458.39 1.029.155.992-.423.001 1.068.664-.113.302.57.467-.031.55.651.636-.202.098.324-.197.143.237.373.012.323-.392.008-.261.354-.457.165-.235-.255-.395.254.125.936.332-.133.374.266.112-.125.67.224.333.466.534.31.251-.044.018.529-.82.552.055.449.305-.202 1.184.153.646-.408.25.201-.3.574.415.207-.014.658.484.045-.751.098-.502.956 1.472.556.2.482.419.07.08.259-.367.85.15.408-.592.027.217.368-.196 1.515.28.491-.172.573.165.157.225-.111-.018.204.378.377.57.143.593-.351.116-.332.972-.54.517.052-.067.307.316.463-.036.295.297.119-.18.783-.63.237.527.642.095.594-.212.094-.311.682.214.151-.129.306.22.231-.212.077-.014.517-.16.055-.332.972.385.017.516.348.431-.25.18.265.14-.283.085.61.4.264-.155.407-.388.174-.2.916-.238.004-.151.324v.727l-.264.263.132.32-.488.484-.12.46-.437.22.42.574.002.277.212-.015.335.515-.248.74-.333.36-.186-.023.96 1.771-.154.32-.533.07.2.493-.652.523.217.585-.33-.093-.223.22-1.063-.77-2.999-3.992-.748-.586-.24-1.029-1.581-3.523-.88-4.878.14-.037.37.708.568.607.001 1.076.258.18-.29 1.373.229.167v-.173l1.037-.047-.75-.308.123-.402-.078-.347-.163.026.098-.438-.273-.06-.046-1.433-.325-.486-.143.047.102.27-.146-.043-.604-1.254.13-.44-.514-.602.33 1.477-.17.034-1.09-3.588-1.654-3.665-.459-2.015-1.066-2.986-.464-.848-.57-.258-.656-1.83-1.2-1.397-.434-.192-.783-1.308-.308-.163-.255.167-.173-.803L.93 2.616 0 .323z" fill="#777"/></svg>