<svg fill="none" height="40" width="26" xmlns="http://www.w3.org/2000/svg"><path d="M17.101 39.603l.18.172.033.225-.315-.086zm2.158-.051l.44.354-.388.013zm-.712-.134l.18.17-.101.21-.183-.156zm-1.193-.083l.322.253-.24.264-.256-.266.092-.352zm1.503-.1l.167.424-.295.103.096-.17-.158-.183zm1.24.08l.123.139-.185.026-.026-.345zm-2.385-.252l-.004.414-.248-.155zm2.506-.19l.04.286.139.116.105.293-.185.022v-.18l-.173-.16-.141-.344.215-.034zm-1.15.06l-.05.287-.25-.148zm-3.161-.065l.224.122.076.284-.274.272zm.915-.021l.106.25-.147.325-.091-.354zm-1.598-.081l.077.142-.074.126.1.11.02.164-.075.282-.196-.592zm5.472-.005l.23.537-.278.182-.337-.431.069-.17zm-3.266.032l.17-.038.096.218-.295.297-.165-.382zm2.139-.194l.366.345-.124.435-.307-.43zm-3.014.097l.104.202-.111.299.133.216-.214.22-.12-.59.152-.246-.16-.105.105-.16zm-1.247-.129l.316.053.215.482-.09.473.126.162-.182.146-.218-.061zm4.585-.058l.25.278-.277-.056zm-3.6.01l-.04.24.12.131-.15.116-.069-.434zm4.11-.014l.241.187-.158.085zm-1.143.01l.195-.008-.167.357.132.483-.1.068-.226-.081.04-.492-.259.046.137-.288zm-1.617-.14l.241.332-.081.23-.198-.405zm2.539-.034l.234.393-.071.067-.345-.364zm-2.363-.053l.06.29-.112-.097-.065-.148zm-.905.01l-.008.357-.21.133.027-.346zm1.586-.128l.276.333-.042.19.088.042-.024.227-.216.045.122.192-.39-.136.05-.454zm-1.099-.02l.177.156.002.36-.34.113-.097-.356zm-.786-.006l.134.078-.133.408-.156-.299zm3.7-.004l.108-.002.041.324-.21-.172zm-1.099.053l.015.258-.253.115.197-.503zm.726-.299l.226.185-.077.223-.315.126-.082-.28zm-2.235-.019l.094.137-.025.215-.173-.124zm-1.663.037l.144.352.16.045-.02.136-.218.055-.05.246-.235-.058-.122-.477zm3.352-.142l.135.094.22.795-.434-.361zm-4.604-.067l.227.435-.011.48-.175.435.073.204-.292.166-.432-.16-.032-.179.231-.726zm4.186.142l.22-.245.115.125-.323.464-.05-.248zm1.205-.27l.32.191-.082.286-.384-.137zm-2.288-.03l.204.207-.094.574-.245-.545zm-.38.003l.082.132-.129.37-.105-.157zm-.741-.052l.227.119.052.217-.27.284-.286-.01.135-.535zm1.72.036l.212.025.206.253-.146.541-.391-.393zm-.482-.151l.176.069-.128.165zm1.259.025l.503-.07.331.187-.085.149-.316.25zm-.723-.097l.485.085.056.243-.118.137-.122-.251-.331-.057zm.14-.33l.033.172.2.04.063.09-.317-.023-.119-.238zm-.547-.273l.357.128-.241.4-.317-.105zm-3.32-.05l-.346.648-.258.146.167-.579zm4.298.048l.574.054-.037.514-.262.063-.621-.28.088-.3zm1.462-.2l.236.425-.094.363-.197.058-.34-.655.036-.238zm-1.092-.212l.105.316-.578-.087zm-.186-.17l.086.11-.406.116-.065.156-.153-.045.168-.36.231-.088zm.096-.607l.379.7-.279.016-.266-.271.27-.108-.214-.37.11.033zm.633.058l.187.236-.128.395-.257.188-.004.279.142.168-.072-.382.185-.013.056.479.313.457-.056.136-.49-.236-.15-.403-.072-.49.188-.228-.236-.495.165.06zm.298-.113l.31.475-.082.451-.448-.048.188-.454-.156-.384zm-1.973.002l.61.204-.677.61.337.348-.06.152-.417-.147-.175-.525zm1.012.34l-.475.267-.247.375-.104-.01-.128-.14.701-.658.134-.03zm.612-.523l.09.194-.193.14-.045-.127.013-.148zm-.864-.402l.084.29-.174.107.152.27-.206.044-.264-.187.026-.164zm.184-.432l.322.018.125.258.166.047.048.416-.263.11.07.332-.652-.335.143-.08-.095-.615zm.918-.255l-.007.396.255.193-.189.079.468.608.01.353.177-.053-.22.185-.27-.535-.302-.029-.112-.333.11-.99zm-.582-1.062l-.01.487.189.443-.216.16-.159-.883zm.26-.166l.164.074.247.822-.25.136-.112.699-.222-.18v-.288l.167-.135-.177-.49.01-.573zM14.023 0l.37.13.07.428.326.178.378-.14.236.119.46-.064.124.17.693.168.627-.494-.059-.202.245-.076.385.006.239.184.179-.129.257.301.174-.07.757.285.032 1.132.282-.322.222.202-.088.186.144.131.4-.116.138.264.28.07.076.414.185.203.798-.063.778-.356.089.183.373.05.064.2.638-.067.402.277.147-.029.063.126-.263.254.12.064.17.005.096-.157.337.13.194-.102.113.265.21-.111.32.08.123.39-.123.188.131.28-.1.046-.059.647.115.2-.277.454.125-.045.067.13-.482.224-.008.16-.194.068.052.23-.261-.117.126.248-.079.09-.13-.082.153.226-.202.15.223.036-.238.166.252.1-.099.065-.125-.017-.146-.236-.02-.123-.229-.064.148.372-.263-.017-.039.176-.12-.026.245.272-.233.128.105.09.126-.133.128.31-.456.281-.007.4-.235-.017-.008-.249-.665-.022-.057-.265-.2.277-.294-.026-.444-.275.013-.121-.15.014.067-.198-.269-.221-.434-.115-.14-.296.04-.395-.245-.336.23-.275-.341-.008.103-.122-.13-.195.043-.237-.336.01-.491-.468-.083.244-.113-.052-.144.174.055.302.28.03.03.082.148.015.104.168-.101.171.265.138.204-.06.03.276-.637.098-.227-.334-.298-.023-.129.1.108.277-.245.033-.176-.182.015-.294-.145-.09-.24.09-.079-.376-.287.135-.144-.329.133-.058-.5-.337-.024-.255-.164-.005.012.16-.255-.053.025-.23-.22.051-.26-.427-.325-.039-.128-.626-.243.29-.272.832.134.228.075-.295.74.186.266.725-.242.076-.186-.176-.126.263-.2.048.059.103-.413.247.006.44-.658.22-.444.311-.125.484.156.053-.078.27.09.062-.276.087-.367.71.139.162.056.663.221.163.222-.178.143.095.392-.162.012.2.684.48.183.309.317.063-.066.452.344.111-.022.167.52.372.202-.054.259.256.313.05.079-.192.371.033-.04-.206.305.011.183.357-.142.436.18.115-.008.21.288.283.114-.092.122.227.548.079-.35.235.015.281-.154.01.08.243-.156.12-.5-.313-.263.276-.197-.133-.134.094-.274-.225-.59.025-.328.201-.424-.24-.344.108.107.385-.127.112.065.333-.105.205.11.104-.36.47.026.166-.383.047-.099.2.138.131-.145.186-.306-.21-.087.143-.002-.303-.227-.291-.566.165.23.531-.18.076-.073.318-.087-.115-.106.298-.226.07-.038.34-.346.386.878 1.136.335.318.48.154.37.391.74.044.514.231.168.336.084-.213.116.005.279.14.465-.032.206.25-.017.547-.208.22.069.332-.1.039.034.13.164-.008.01.713.202-.096.079.164-.231.046-.022.457-.188.001-.278.315-.53.058.165.301-.27.22.123.141-.11.864.198.038-.074.251.41-.051.092.387.535.503.356-.098-.048.374-.164-.01-.05.166.03.4-.184.108.08.255-.311.094.147.305.489.26.111-.007.024-.24.224.184.388-.038.037.151.483-.028-.082.217-.13-.06-.261.445-.325.21.021.638-.17.014.135.09-.041.239.217.032.118.222-.029.288h.235l.138.241-.058.337-.251.226.257.494-.172.5.16.056-.128.283-.44.168-.167.263.098.186-.077.644.193.229-.367-.058-.122.526-.373.342-.034.223-.348-.026-.401.7.111.44-.243.488.051.427-.183.161-.036-.121-.204.023-.08.35-.217-.179.2-.353-.677.163-.142.148-.044.596-.171.007-.067-.41-.255.069-.35.274.088.358-.356-.06-.345-.794.09-.322-.152-.23.347-.437.103-.365-.133-.635-.24-.221-.614-.091.226-.642-.358.586-.411-.177-.168-.27-.079-.843-.147-.2-.254-.045.375.52-.015.737.44.407.812.116.342.592-.811.596-.059.02-.465 1.054-.327.395-.252.049-.641.68-.233-.032-.408.29-1.33.338-.149-.25.078-.43-.179-.151.005-.22-.47.006-.116-.178-.574-.194-.177-.97-.431-.132-.058.296-.415.157.007.328-.413-.034-.206-.291.233-.566-.107-.36-.387-.29-.802-.082-.267-.408-.479.073.047-.497.284.027.057-.017h.154l.063-.168.013-.18.028.102.444-.02.004-.29-.365-.212.094-.495-.523-.203-.108-.35.281.008.06-.169-.248-.51-.693-.024-.217-.678-.503-.328-.21.133-.578-.522.106-.584.194-.252-.194-.186.241-.181.09.105.217-.07.14-.299-.18.146-.095-.164-.519-.034-.148.143-.607-.272-.55.15-.399-.342-.086-.295-.567-.178-.07-.243-.782.098-.368-.452-.166-.006L0 28.065l.33-.423-.074-.287.188-.04-.21-.276.02-.42.498.108.662-.273-.234-.406.231-.225.627.113.005.662.483.12.114-.096-.09.237.118.113.226-.15.138.147.091-.058-.09-.108.46-.272-.117-.097.027-.326.147-.289.376-.174.002-.143.568.004.403-.295.655-.164.242.006.041.113.345-.068.178-.517-.172-.493.178.141.324-.23.025-.128.127-.123.265.246.195-.144 1.007.493.157.005.114-.177-.228-.332.415.09-.046.094.193.07.154.032.035-.567.142.239.155-.18-.018-.4-.194-.074-.15-.527.604.071-.109.187.08.06.185-.093.648.195-.154-.19.313-.037.178-.184-.124-.085.016-.444.528.21-.044-.15.246-.157-.245-.187.77.041.019-.255-.351-.18-.013-.217.292-.027.185-.321.295-.082.344-.725-.162-.056.244-.563-.104-.114-.073.138.071-.382-.236-.258.504.217.25-.083.146-.22-.239-.118.185-.013-.109-.1.185-.225-.172-.11.091-.334-.39-.118-.14-.196.125-.155-.014.174.123-.007.141-.208-.057-.207.197-.01-.06-.202.54-.307-.044-.235-.573-.697-.643-.447.07-.916.314.15-.088-.248.215-.308-.464-.388.031-.283-.148-.04-.042-.193.142-.281.175.074.161-.216.19-.006.1-.36.127.084.173-.227.384.081.004.158.113.06.02-.115.13.172.273.04.016-.166-.237-.234-.095-.357.213-.326-.12-.029.083-.382-.56-.243-.184-.333-.217.011.077-.32-.173-.099.176-.165-.564-.14-.122-.29.168-.167.078-.778.453-.332.116.157.044-.11.193.022-.026-.505.314.08.156-.263.208.014.478-.552.446-.206.497-.517-.155-.195-.192.042-.046-.134.24-.199-.25-.181-.017-.209-.208.03-.094-.133.348-.3-.014-.14-.403.105-.147.189-.251-.177v-.002l-.005-.025.37-.695.175-.97-.092-.674-.238-.239.062-.158-.164-.214.093-.253-.272-.135-.1-.224-.25-.009-.107-.368-.189-.128.178-.472-.033-.35z" fill="#777"/></svg>