<svg fill="none" height="40" width="40" xmlns="http://www.w3.org/2000/svg"><path d="M2.535.04L2.912 0l.406.444 1.17.565-.493.828-.135.14-.141-.064-.153.317.078.135-.224.238.079.122-.145.2.082.132-.165.256.333.528-.037.426.197.094-.013.114.193.077.238-.2.414-.02.132.558-.132-.012-.024.156.193.015.023.258.258-.042.038-.247.202-.053.302-.454.289-.208.2.036.533-.563.428.145.398.19.21.716.413.382.956.524.729.121-.28.39-.22.147-.105-.09-.106.327-.167-.125-.23.198.455.362.28-.02.246.357.007.316.233.006.095-.105.29.298.053-.331.55.261.033.365.15.11-.037.173.243-.038.503.462.28.004.042-.11.092.203.13.03.051.463.509-.045.155-.178.076.283.332-.138.28.123.243-.196.33-.067.182.175-.134.349.172-.042.046-.197.156.003.115.157-.186.059.322.04-.066.099.178.321.24.104.243-.132.143-.277-.079-.102.248-.18.251.005.52.446.182-.016.03.173.321.177.225.382.487.05.353.466.067-.131-.142-.556.346-.137.227.295.297-.016.12.332.412.13.112.25.406.21.055-.123.173.074.03.18.344.202.203-.105.092.232.238.172.694.147.117.432.466.553.003.171-.101.011.137.113-.053.09.283-.054.02-.209.365.09.212.264-.03.215.773.488.414.09.97.777.218-.015.223-.415.527.033.295.351.45.132 1.275.986 1.374-.258.02.34.235.47-.11.5 1.03.014.13.198.425.114.816-.031.619.734.288-.07.267-.416-.131-.135.09-.134-.068-.132 1.196.06 1.282.709-.157.169.137.069.329-.085.047.127-.147.267.3.146.129.207-.209.641.431-.015-.159.161.266.143.03.493-.115.115.121.064.023.24.202.086.056-.14.213.078-.049.19.198.126.213-.217.17.05.059.32-.147.308.05.104.07.061.27-.142.146.41.405.077.065.262-.754.165-1.01-.258.005.257-.184.333-.39.069-.062.139-.32-.057v.403l.423.093.153-.083.324.38.527.062.054.338-.118.421-.246-.095-.178.241-.36-.115.036.566.163.269.223.018.404.42-.006.201.189-.053.501.316.292-.073.302.166.08.23.558.086-.01.256.157-.018.338.256-.104.197.159.19-.397-.047-.018.309-.11-.052.023-.199-.06.249-.192.038-.21-.216-.249.089-.115-.29-.258.024-.068.428-.185-.03.01.091-.438-.047-.046-.2-.244-.162-.285.063-.132.146.037.342-.846.465-.349.5-.217.045.15.17-.234.032.027.121-.2.136-.155-.133-.151.143-.05-.058-.102.104.073.042-.206.019-.147.226-.31.126-.13-.056-.42.386-.27.016-.112.248-.204.047-.076.103.117.336-.208.626.136.04.054.82.193.22-.02.285.352.298.142-.026.005.187.174.144-.085.172.232.15-.229.578-.557.151-.062.266.1.274.157.028.114.228-.4.293.138.283-.416.958-.183.166-.068.288-.319.197-.14.397-.546.25-.783.013-.695-.506-.055-.245-.294-.095.13-.328-.308-.017-.27-.314.071-.138.263.113.035-.49.121-.075.076-.329-.02-.47-.282-.07.156-.669-.111-.079-.017-.25.178.086.29-.065-.023-.275h-.193l.015-.268-.359.008.004-.184-.201-.144-.682.283-.058-.155-.368.003-.088-.166-.163.132.04.502-.42-.151-.19.058.012-.329-.175-.096-.054.119-.123-.02.073-.621-.028.125-.093-.074.01.09-.123-.002.075.137-.216-.064.087-.25.107.005-.162-.136.09-.116-.194.189h-.25l-.569-.343-.242.118-.333-.363.083-.224-.072-.461-.066.098-.3-.155-.213.054-.301-.226-.268.028-.123-.21-.288.11-.056-.11.202-.138-.08-.114-.083.131-.048-.212.142-.136-.197-.05-.081-.162-.302.05.08.256-.155-.051-.12.089.185.178-.127.187-.439-.193.199-.015-.043-.136-.207.061-.325-.29-.09.053.01.277-.045-.292-.197-.01-.124.365.084.218-.318.426.058.358-.15.032.078-.033-.2-.139-.153.39-.297-.353-.354-.012.038.128-.326.04-.098-.275-.21.093.03.096-.096-.05-.264.083-.174-.058-.064-.16.308-.154-.114-.24.233-.188-.03-.308.212-.215-.143-.207-.22.017-.046.483-.15-.212-.53.055.137.083v.147l.269.08v.132l-.259-.06-.284.104.03-.162-.122.043-.291-.175.164-.111-.2-.188.065.488-.235-.113-.101.14-.18-.196-.177-.008.126.075-.03.26-.127.003-.157-.22-.397.143.087.282-.124-.096-.224.134-.263-.158.447-.673.384-.171-.13-.404-.112.032-.392-.302.035-.579-.29-.243-.057.14-.272-.066-.032.19-.342.267-.212-.103-.332.075-.127.438-.287-.02-.155.227-.058-.138-.293.098.132.527-.13.1.044.204-.584-.266-.784.073.026-.137-.069.044-.128-.178-.401.557-.156-.08.042-.223-.198.157-.084-.185-.085.15-.081-.333.136-.226.176-.022-.083-.073.17-.261.166-.005-.175-.08-.224.145-.253-.206-.077.17-.118-.169.08-.229-.27-.042-.184.176-.004.228.15-.11.119.166.159-.064-.058.252.094.092-.076.079-.313-.278.028.298.19.267-.06.11-.23.065-.004-.183-.124-.045-.116.074.157.044-.027.143-.17.016-.114-.22-.096.052.066.145-.265.04-.113-.193.066-.12-.191-.167-.219.32-.113-.03.015-.254.17-.23-.236-.132-.038-.17-.179.19.125.065.006.222-.252-.143-.405.318.021-.527.084.061.09-.17.17.069.155-.132-.091-.38-.134.106-.27-.075-.185.678-.191-.246.032-.17-.151.014.046-.101.273-.104-.03-.116.196-.209.395-.073-.096.135-.205.01.192.14.264-.143-.097-.37-.165.062-.137-.109.172-.195-.102-.24.135-.06-.06-.169-.073.108-.034-.106-.191.014.009.192-.253.085.153.252-.121.204-.109-.082.17-.047-.085-.067-.389-.061-.13-.144-.039.22.162.173.306.02-.37.104.113.32-.269.031-.025-.151-.27-.055-.008-.188.067.095.171-.147-.083-.111-.175.022-.128.22-.133-.062-.08.147-.145-.021.08.257-.27-.065.086.214-.087.118-.131.014-.043-.116-.133.182-.14-.066-.07.091.14.106.227-.137.381.208.152.943.237.213-.105.567.167.12.078.246.51.24.085.271-.085.117.041.532-.171.258.05.321.145.07.556-.273.449.834-.19.072-.089-.095-.028.199.402.148-.093.512-.313.305-.153.456-.346.074-.116.175-.167-.456-.076.112-.073-.084-.176.112-.158-.061-.48-.653-.388-.215-.374.561-.293.129-.284-.315.185-.328-.498-.359.014-.168-.264-.272.207-.207.051-.636-.255-.469-.06-.385-.24-.257.009-.145.86-.69v-.523l.359-.244.252.01-.13-.145.149-.092-.324-.153.066-.133-.23-.166-.05-.304-.196-.077.123-.151-.19-.224.185-.154.091-.317.158.038.23-.172-.064-.325.11-.182.137.07.165-.179.503.106.145-.146.212.138.151-.168.68-.179.032-.294-.342-.44.39-.297.01-.093-.124-.018.066-.07.268.183-.081-.362.191-.058-.033-.268.282-.199.078-.518.312-.265-.321-.339.308-.094-.124-.24.2-.011.028-.218.194.008-.106-.202.16-.122.087.09.054-.234.174-.025-.058-.113.096-.058-.302-.105.053-.327.162.004.05-.164-.415-.067.066-.28-.214-.287-.12.004-.035-.186-.062.049.138-.217-.066-.44-.293.13.054-.203-.234-.098-.207.051-.284-.361-.238.005-.135-.166-.096.078-.04-.124-.298.184-.495.07-.61-.241-.131-.204-.192.044-.204-.295-.367.062-.112.257-.27-.09-.1-.313.188.035.189-.243-.245-.182-.057.09-.498-.085-.052.287-.314-.062.03.242-.137.083-.082-.296-.343.064-.223-.147-.052.209-.724-.288-.183.127-.017.21-.59.288-.444.064-.12-.154-.09.358.065.124-.239.12.085-.136-.189-.003.056-.292-.089-.285 1.2-.636.464-.086.1-.206-.152-.052-.022.186h-.1l-.16-.306-.243.216-.371-.128.044-.245-.235.064-.122-.167.49-.166.076-.271.262-.043.098-.148-.178-.1.025-.13-.279-.368.12-.257-.21.1-.41-.327-.347-.106-.088-.157.076-.22-.176-.094-.074-.232-.25-.08-.026-.247.105-.134-.206-.11.165-.247-.031-.26-.206-.134.034-.416-.15-.112.337-.318.387.003v-.223l.244.065.055-.286.267.006.096-.155-.141-.063.13-.152-.297-.305-.055-.252.05-.132.075.06.021-.373.244-.131-.266-.021-.016-.162.159.061-.019-.168.136-.109-.392-.133.135-.065.016-.16-.17-.187.162-.122-.104-.333-.726-.578-.233-.349.225-.255-.132-.216.065-.432-.205.02-.319-.454-.147-.047.108-.243-.161-.19-.027-.14.208-.087L.558 8.9l.127-.306-.488-.606.095-.464-.078-.26.1-.113-.078-.18.13-.382-.18-.087-.016-.164.158-.08-.111-.127.072-.192L0 5.381l.131-.118-.127-.292.306-.643-.14-.397.188-.138.147-.691.44-.589.038-.283.764-.361-.087-.072.135-.305.264-.124.283-.576.231-.178.115-.368-.09-.084z" fill="#777"/></svg>