<svg fill="none" height="36" width="25" xmlns="http://www.w3.org/2000/svg"><path d="M21.498.031l.959.432.001 1.008.868 1.867-1.249 2.993 1.754-.056.841 2.413-.475 2.575.312 1.035-.368.667.412 1.119-.229 1.055-.591-.13-.36.514.251.74-.573.041.191 1.979-.441.103-.49 1.53-.133-.866-.652-.352-.13-.732-.36.064-1.936 2.176-.995-.305-.827-1.643-.449.046-.415 1.051.687 4.563-.697.304-.001.72-.802-.087-1.176.942-1.517 2.79 1.268 4.167-.425.583-.768.074-1.139 1.774-.538-.317-.967.243-.99.82-.776-.372-1.471-4.12.281-.661-.767-.155.245-.533-.55-.97-.754-.006-.729 1.724.693 2.74-.928-.109-.99-2.135.041-2.169-.542-.863.317-.265-.508-.43.593-.945-.606.18L2 23.752l-.982-.642.233-.7-.388.008-.704-1.24-.096-1.566.788.541.233-.929L0 19.14l.045-1.105.736-.317.608.302.692-2.28-.526-1 .355-.69-.298-.352.859.054-.093-.857.248-.446.334.237.142-.593 1.502.499.384-1.711-.387-1.336 3.5.767 1.86-.609.547-1.952-.254-.616.408-.37.364 1.405.98.62.637-.024-.392-2.386 1.509.88.668-.446-.12.703.974 1.394.453-.12.67-2.88-.449-1.569.768-.472.801.805-.446-1.55 3.038.11.417-.935.704-.149-.426-1.599.072-.552z" fill="#777"/></svg>