<svg width="40" height="31" fill="none" xmlns="http://www.w3.org/2000/svg"><path d="M11.784.301l.299.352.598-.025.423-.026.374-.3.398-.151.4.2.422.628.499.728.648.753.281.562.847.552.822.402.698.653.822.275.648.678.398.352.673.075.573.627.025.452-.125.377.175.477.299.451.672.201h.822l.922.276.548.502.224.653.25.452.872.1 1.002-.461.866-.217h.698l.505-.803.573-.502.673-.15.548-.226.498-.377.872-.075.723.226.448.25.3-.175v-.653l.273-.326.449-.125.622.502.324.376.399.1.772.176.598.176.498-.226.349-.125.324.527.299.502.423.226.523.376.15.402-.124.426.074.452-.025.326-.224.427-.025.301-.249.352-.05.376.025.653-.2.502-.198.477-.15.351-.1.552-.373.201-.409.18-.523.252v.502l-.2.326-.473-.025-.523.025-.249.226.05.276.224.402.128.526-.218.94-.514.566-.311.125-.499-.125-.56-.189-.343.157-.498.095-.296.094-.125.298.11.439.187.392.218.361.342.565-.093.345-.265.235-.374.157-.062.345.046.408-.12.18.774.717.044.423.58.235 1.175.078.03.195-.318.734-.013.323.504.563.119.54.325.269.163.556-.1.396-.51.132-.712.618L34.81 29l-.29.079-.4.29-.116.576-.29-.073-.377.253-.328-.151-.7-.674-.091-.576.087-.19-.18-.61-.48.291-.15.264-.424-.033-.31.244-.173-.04-.212.147-.008.276-.148-.112-.378.335-.167-.2.108-.132-.013-.301.483-.285-.134-.305.043-.56-.439.15.042.155-.434.273-.316-.061-.163.228-.147-.123-.147.236-.165-.07.01.272-.279.034-.416-.665.063-.456-.18-.058-.174-.332-.452-.228.15-.254-.406-.415-.248-.09-.063.167-.363.098-.337.353-.184.006-.154.155-.355-.15-.162.378-.15.034-.12-.214-.245-.14-.102.07-.055-.19-.285-.223-.145.108-.052-.417-.322.045-.207-.165-.194.063-.424-.276-.211-.505-.172.012-.215-.272.13-.57-.133.061-.128-.12-.12.04-.134.44-.54.106-.236-.279-.18-.017-.411.187-.406-.043-.611.52-.198.447-.752.174-.06.226-.715.523-.413-.282-.31.003-.07.373.415.353.203.354-.083.413.141.295-.267.421-.358.556-.306.067-.18.362-.956.43-.146.454-.058-.213-.118-.045.024-.14-.3.098-.486-.081-.665-.423-.036-.12-.257.062-.298-.407-.241-.075-.3.276-.755-.302-.718.07-.294-.786.178-.293-.137-.377.246-.759-.289.106-.145.407-.433.106-.297.186-.723-.076-.348-.25-.524-.252-.398-.376-.623-.226-.523-.377h-.797l-.175-.376-.274-.251-.349-.301.15-.628-.224-.452-.075-.778.274-.326-.2-.803.125-.302.025-.376-.374-.376.026-.352.249-.301-.2-.778-.373-.376.024-.728-.074-.588-.25-.627.1-.628V16.5l.324-.35.548-.151.424-.176.025-.477.323-.577.35-.05.846-.025.3-.227.199-.752.224-.477v-.502l-.449-.452-.622-.276-.499-.15-.299-.227-.174-.376.1-.402.348-.226.15-.301-.25-.552-.523.025-.597-.075-.499-.15-.872-.076-.473-.437-.224-.452-.175-.652-.672-.327-.772-.175-.499.326-.548.025-.2-.301L0 6.953l.125-.277L0 6.275l.1-.402.249-.577.598-.427.622-.527.574-.627.548-.703.224-.703.498-.326.772.075.972.1 1.096.05.523-.125-.473-.527-.418-.232.208-.3.509-.07.448.402.648.15.324-.401.448-.1.424-.202.348-.175.549-.277.373-.3.549-.051.423.075.648.226z" fill="#777"/></svg>