<svg fill="none" height="40" width="38" xmlns="http://www.w3.org/2000/svg"><path d="M36.283 0l.747 3.33-.96.569.469.309.126 1.144.58.24-.56 1.137.418 1.071-1.614 1.458-.004.844-1.7 2.6.759.688-.027.626.603.292-.283 3.246.415.532-.477.985.049 1.286 1.268.639-1.542 2.435-1.358.718-.297.565-.117.802.723 2.37-2.239 2.027-.349 1.253-.598.39.312.562-1.082.14-.718 1.41-2.533.77-.961-.128-1.472-1.017-.032-1.58.768-1.255-.373-.019.381-1.008-.44-.137-1.317 1.745-.61-.1-.856.625-.19 1.083-2.08 1.04-.52-.371-1.4.247-.388-1.128-.677-.06-.417.681-.907-.195-.12-.583-1.388-.787-.082.536-.88.318-1.427-.256-2.361.61-.095.872.745.018.096.723-1.771 2.246h-.491L5.379 40 4.34 38.954l-.965.138.112-.678-.663-.074-.054-.653-.431-.754.512-.77-.318-1.183-1.284-.636L0 32.557l1.865-1.83 1.409-.543 1.428-2.258 2.574-1.903-.347-1.319 1.25-.584.412-.643.493 1.222-.36 1.374.31.693.906-1.046.786.362.646-.905 1.237-.695-.478-1.902.706-1.417.266-2.186 2.01-3.331 1.314-.389.214-2.532 1.756-2.143.254-.115.08 1.817.44.388.674-.996.94-.516.166-1.79 1.062-.46.107-.75 1.5-.898.577.435.574-1.054.47.452 1.135-.306 2.25-1.605 1.636-2.765.816-.43 1.12.741.695-.156 1.726-.91z" fill="#777"/></svg>