<svg fill="none" height="32" width="40" xmlns="http://www.w3.org/2000/svg"><path d="M9.162 15.61l.187.216-.13.15-.308-.211zm-3.12-.125l.063.1-.393.29.054-.279zm5.545-.796l.114.174-.44.127.047-.196zM2.364 9.706l.343.12.017.173-.27.073.01.11L2.238 10l.189-.07zm.196-.42l.184.14-.004.184-.253-.172-.062-.139.135-.013zm-.739-.737l.14.17-.07.369-.163-.105.023-.247-.256.232-.056-.083zm.06-.808l-.006.247-.323.372.032-.343zm-.165-.195l.065.166-.166.1-.037-.206zm-.622-1.254l.251.141.18-.07-.227.978-.48.494-.259-.06.117-.057-.124-.12-.197.077.051.109-.183.006.03-.118-.179.071L0 7.55l.117-.162.413-.014.381-.516.183-.566zm-.247.044l.03.449-.28.202-.003-.592zm1.125-.224l.129.532-.505.106.122-.241-.055-.227zm-.708-.22l.174.004.09.36-.377-.026-.045-.16zm.36-.506l.002.452-.412-.043-.173.213.018-.345zm.577-.016l.142.144.17.042-.41.378-.166-.068.017-.151.28-.207zm-.32-.384l.23.476-.476.529.161-.577-.082-.115-.176.068.125-.3zm-.331-.02l-.127.422-.415.235-.046.57-.106.085-.11-.121-.241.22.007.704-.18.075-.292-.348.265-.305-.136-.416.138-.01.27-.549.366-.019.16-.418.23.085.217-.21zM18.567.177l1.212.512.338-.32.204.222.669-.366.815.023.286.262.874-.262.081.342.297.123.115-.497.277.055.153.284.688-.554.209.061-.002.311.511.268.288.013.123-.142.54.168.247-.064-.177.219-.297-.092-.18.138.28.293.4-.099.18.364.358-.026-.038.306.178.373.274-.019-.046-.283.28-.395.28.24.69.107-.023.266.248.405.862-.031.355.275.429-.263-.179-.138.235-.608.08-.082.243.12.275-.206.089.478-.149.223.54.307.262-.173.13.075-.13.213-.115-.066-.078.294-.227-.044-.396.858.2.324.697.281-.158.327.298.284.287-.116.264-.323.017-.29.243-.09-.024.28.28.257-.055.423.125.414-.398.482.004.518.084.145.283-.088.374.489.186.04.031.601.406-.268.53.225-.15.52.136.306-.163.359.13.083.323-.107.14.3.245-.319.117.167.312-.084.395.76.283-.03.054-.223.15-.025.127.274.266.037.075.251.363.002.204.183-.042.628.355.184.156-.275.245.026.268.482-.036.164.256.223.305.572-.185.106.13.219.243.233.325-.17.174.452-.482.883-.12.602-.755-.008-.713.878-.55-.23-.204.292.053.122.269-.122-.046.295.16-.015.125.324.136-.247.107.169.163-.083.026-.232.088.28.314.028.255.266-.23-.038-.197.286-.129-.063-.1.315-.36-.072-.142-.27-.255.078-.081.513.206.29-.1.149.298.062.048.792.155-.054.166.13-.528.489.357.2-.05.222-2.133.897.22.224-.088.19.414.43-.068.378-.624.137.235.183.23.702 1.33-.437h.74l.14.194.189-.13.203.1.227-.202.145.164-.006.311-.496.225-.131-.115-.041.141-.595-.03-.127.105-.266-.231-.118.427-.508.187-.1-.07-.028.716-.36.24-.38-.034-.06.652-.515.033-.032.197-.352-.095-.285.133-.148-.296-.158.056.455.406.59-.039-.067.4.208.307.209-.082.055.18.572.088-.072.294.318.682.028.666-.182.128-.224-.042-.14.24-.26.004.144.182-.045.349-.573.33-.3-.076-.192.11-.216-.116-.187-.388-.438-.256-.254.14-.1-.434-.184.045-.088.31-.236.152.24.323.256.078.007.275.12.02-.451.856-.244.164.204.259.04.99-.353.092-.042-.14-.094.1-.265-.059-.14.391-.463.187-.13-.121.206-.273-.117-.117-.408-.065.028.231-.16.11-.2-.117-.07.117-.035-.496.213-.016.304-.396.131.027-.11-.208-.31.083-.034-.379-.105.23-.257.026-.04.216-.154-.178.004.18-.191-.008-.04.139-.243-.148-.136.1.292.45-.61-.09-.254.27.005.28-.212-.026-.001.16-.408-.08.115-1.055.418-.536.402-.879.082-.589-.671-2.107.01-.33-.138.066-.31-.775.3-.122-.415-.049.099-.472-.341-.083-.051.46-.201.084-.057-1.003-.194-.469.239-.617.453-.568-.328.21.183-.592.196-.08-.138-.074-.365.346-.18-.411.196-.441.462-.238.55.044.303-.156-.351.032-.278-.18-1.262.172-.193-.253.21-.236.187-.605-.33-.229-.098-.67.288-1.345.217-.343.417-.113.678.302.347-.5.44.152.156-.073.077-.3-.116.217-.187.026-.147-.273-.583.353-.408-.052-.34-.316-.592.284-.025-.21-.326.525.042-.273-.14-.011-.226-.432-.266-.124.122-.27-.21-.185-.117.096.212.146-.134.26.258.102.017.484-.107.191-.276-.493.037.455.186.254-.097.126-.13-.23-.077.402-.125-.036-.288 1.36-.235-.807.284-.168.072.074.011-.313-.411.367-.013.26-.083.476.207.334.079 1.092.263.767-.526 1.298-.618.736-.107.33-.209-.135.135.182-.098.207.202.336-.607.288-.067.148.019-.364-.216.444-.997.333-.146.103.063.13-.583.12-.95.481-.323.012.007.176-.48.358-.397-.03.042.116-1.116.375-.339.161-.039.142h-.37l-.087.142-.742-.029-.46.213-.217-.3-.06-.07.142-.004v-.207l.169.003.015-.206-.504-.18.53-.235-.085-.405-.26-.173-.477.066-.187-.199-.398.995-.033.55-.377-.044-1.116-.564-2.157-1.718L9.705 22l.325-.338-.168-.493-.083.123-.31-.043.264.25-.14.063.183.149-.12.22-3.007-2.766-1.747-2.028-.136-.512.31-.704.525-.453.114.057-.263.27.158.252.797-.191.065.151-.295.612.475.379.555-.23.088-.265.544.097.419-.14.245-.354-.162-.332.332.212.072.338.59-.023.06-.239.222-.013-.007-.325-.165-.054.358-.159.104.297.095-.075.242.287.245-.373.216.052.387-.427.167.09-.03-.236.55-.23.165.112.622-.033.509-.766.063-.49.32-.166.321-.781.442-.426.447-.988-.357.088-.228.22-.094.57-.249.123-.699-.34-.111.157-.37.098-.246-.125.056.25-2.12.51-.292.214-.296.548-.4-.174-.268.046-.295-.23-.523.13-.744-.382-1.003-.067-2.434-1.583-.351-.09-1.067-.925-.044-.131.555-.257-.198.024-.025-.557-.196-.237-.299-.038.01-.228-.158-.013-.212-.313-.086-1.153.074-.17.127.017.026-.25.687-.47.214-.352.45-.246-.129-.096-.711.135-.5.563-.07-.47.199-.076.166-.313.576-.26-.27.028-.158-.194-.048.136-.189-.012-.136-.163.06-.11 1.286.008.15-2.317.34-.1.137.699.252.087.38-.564.339.354.587-.301.68.236.702-.29 1.213.152.633-.16.787.718 1.755.06.373-.184.38-.683 2.897-.907.235.139-.252.392.097.24-.083.404.515.19.956.017.562-.24-.057-.236.474-.388.246-.1.31.093.538-.381-.082-.205-.706-.076.048-.566-.109-.13.141-.624.55-.351z" fill="#777"/></svg>