<svg fill="none" height="37" width="40" xmlns="http://www.w3.org/2000/svg"><path d="M18.883 1.587l.617.774-.164.579.45.315.14.823.465.546.657.155.361 1.095 1.02-.022.346.881.65.42.771-.578.588.032.433-.317.727.393.578-.015.696 1.173 1.494.65.682.87.627-.446.384.66.374-.019.168.372-.203.545-.455.37.33.334.078.89 1.04.156.726.547.373-.058 1.457 1.035.668-.443 1.774 1.198.854 1.051 2.411.9-.008.217-.33-.134-.909.317-.547.729.17.542-1.346 1.06-.157.574-.827.65-.84-.009-.588 1.465-.663.692-.689-.11-.786.736.188 1.01.415.48-.143.589-.336.449-.418.112.08.453-.728.555.183.322-.687.114-.017.439.388.258.049.593.434.455-.227 1.441-.568-.206.272 1.043-.444.314-.567-.251-.463.456-.101 1.27-.206.338-.204-.062-.483.93.141 1.146-.54.396.171.222-.31.605-.53.287-.526-.225-.387-.703.142-.216-.702-.087.405-.128-.249-.343-.342-.007-.1.43-.376.091.292-.76-.395-.384-.72.148-.533.428-.61-.27-.724.303-.167-.619-.338.388-1.111.099-.114-1.012-.282-.064-.2-.443-.091.24-.613-.01-1.098-1.008-.53.083.083-.377-.33-.24-.07-.796-1.202-.57-.115.722-.633-.65-.208.229-.509-.014-.014-.69-.539-.78-.61.045-.995-.79.503-.432.364.273.233-.714.23.196.479-.322.61-.85-1.59-.264-2.086-1.144-.902-.835-.46-1.562-.868-.415-.935-.317-1.162 1.23-.438-.08-.63.454-.66.991-.44.117-.083.54-.565.09-.05-.563-.421-.032.052-.342.29.027-.288-1.22-.904.047-.52.436-.421-.169.027-.247-.43-.207.08-.93-.725-1.153.359-.558-.178-.287.316-.438-.172-.265.488-.52-.17-.295.334-.693.308.139.295-.304 1.076-1.808-2.554-1.233-.886-.97-.824.086.209-.347 1.134-.288 1.39-.803.132-.294-.085-.412-.48.01-.373-.476.607-.283-.034-.599-.529-.298.09-.335-.612-.783.65-.826.001-.694.52.306.072-.882-.58.02-.127-.503.339-.237.616.317-.24-.22.335-.518-.286-.73.489-.26.517-.995.778-.327.688.323.182-.411.669-.075.695-.553.981-.047.422-.492.282.071.057-.3.67-.037.478.585.254-.164.285.213.3.549.776-.04.674-.403.452.197.154.369 1.705-.141.274.785.61.54 1.448-.109-.254-.85-.682-.639-.101-.462.214-.985.766-.438.65-1.446.938.43z" fill="#777"/></svg>