<svg fill="none" height="38" width="40" xmlns="http://www.w3.org/2000/svg"><path d="M2.763 15.108l.149-.247-.416-.29.313-.634-.257-.089.52-.167-.342-.166.266-.19.216.09-.034-.68.453-.048.076.236.693-.256-.032-1.124.217-.289.253.214.448-1.145.923-.138-.536-.8-.36-.026.116-.38-.36.025.039-.305-.437.008-.087-.438.037-.311.312.1.048-.472.399.11-.15-.423.24-.42-.104-.15.183-.543.337-.112-.385-.157-.01-.167.774-.365.85.656.047.27.273-.12.77.171.238-.889-.131-.745 1.112-.416-.262-.95.282-.126-.002-.302-.362-.55.141-.249.522-.223.197-.63-.252-.543-.394-.097L9.517 0l.147.302.42.037.119.4.689.187.156.217.284-.266.679.04.99.473.6-.112.533.19.116.953.502-.107.465.173.101.599-.228.31.337-.095.223.206.742.111.658.628.396-.066-.142-.223.262-.328.064-.8.535.21.082.23.48-.054.89.688.635-.476.086.265.4.152.366-.664.883-.263.395.09.376.528.983.675.288.592-.099.964-.365.662.202.52-.747.618.014.646.496-.118.16.239.04 1.512-.395.261.334.431.705.164.864.84.415-.183.27.19.115-.204.576-.19.652 1.22 1.243-.386L29.819 13l.158.431.423.336-.07.155.312.096-.09.241.249.747.382.446-.482.326.012.436.556.05.278-.627.332.248-.169.09.121.6.98-.328-.26.805.776 2.692.361.031.755-.612.829.374 1.149.05.653-.167.191.202.769-.23.372.115.455-.568.222-.073.13.218.484-.298.303.378-.091.19-1.806.977-.048.352-.599.904.182.186-.195.28-.07.834-.683.803-.384.04-.414-.307-.505.65-.751-.02-.165.825-1.02.172-.486.314-.753-.198.07.508-.378-.003-.1.878-.232.231-.937-.357-.756.087.15-.3-.847-.462-.562.277-.122.53-.316.305-.226-.072-.223-.485-.246.194.19.39-.267.399 1.137.49.03-.283.816.198.023.484-.192.044-.091.407.435.34-.363.228-.934-.249-.033-.232-.464-.316-.235.355-.126-.403-.345-.147-.158-.78-.343-.503-.535-.023-.168-.293-.423.548-.773.184-.318.533-.157.405.363.099.321.356-.19.63-.789.945-.492.039-.353-.555-.453.071-.31-.358-1.113.62-1.324.289-.62.44-1.408.193-.358.488-.059 2.46-.369.206-1.278-.262-.926.397-.176.187.045.702-.332-.046-.086-.392-.22-.034-.012.635-.54.583-.538-.027-.848-.662-.508.39-1.347-.225-.785.474-.523-.02-.164.934-.508.262-.135.47h-.341l-.143.2-.402-.16-.241-.525-.302.391-1.002-.335-.776.28-.73-.195-.501.092-.462-.321-.85-.084.005-.743-.17-.26.164-.667-.2-.112-.026-.391.238-.593-.193-.01-.01-.232.12-.165.285.047.274-.32.222.099.011-.464-.852-.351-.726.12-.604-.156-.511-.213L0 31.899l.499-.051.04-.164.612.068.112-.244.318-.065-.21-.435.639-.174.046-.575-.32.085-.144-.23.425-.143.016-.309-.38-.023.123-.63.295.037-.155-1.193.403-.903-.323-.89-.9-.528.34-.434-.161-.101.65-.517-.18-.114.155-.757.417.151.253-.166.066-.294-.222-.213.547-.021.006-.228.328.092.003-.237.259-.055.108-.252-.041.203.315.077.015-.302-.824-.249-.017-.277-.364.123-.184-.22-.226.299-.102-.234-.44-.14.092-1.014.98-.514.034-.158-.54-.17.057-.173.132-.235.209.081.202-.506.21.022-.1-.349.274.05.064-.507.177.105.083-.212-.064-.22-.473-.157-.408-.404.481-.422-.024-.485-.294-.45.34-.717z" fill="#777"/></svg>