<svg fill="none" height="40" width="25" xmlns="http://www.w3.org/2000/svg"><path d="M18.187 0l.6.114.132.267.35.093.212.84.197.09-.088.139.792.273.2.426-.086.467.355.536.946.235.016-.383.408-.064.092.568-.314.573-.021.478.24.183.218-.137.158.284-.216 1.232.565.366.11.756.247-.384.16.303.321-.08.043.178.542-.089.11.233-.114.477-.238.032-.261.616-.183.003-.17.178-.028.425-.418.221-.41-.014-.445.43-.015.311-.132-.007-.024.127.387.243-.22.617-.846.153-.639.645-.353-.017-.278.133-.512.771.244.245-.366.065-.02.585.108.2.278.136-.17.248.076.18-.314.075.031.242-.269-.132-.14.203.1.262-.38.424.382.314-.187.13-.068-.281-.358.232-.272.746.093.327.256.283.053.324-.165.054-.618-.223-.094.398.12.17-.331.161-.167.79-.414.219-.468-.113-.5-.36-.452.168-.394-.06-.14.122-.216-.13-.686.066.053.301-.21.195.076.219-.41.602-.396.24-.158.505-.256-.017-.084-.228-.323-.135-.068.793.195.85-.26.443.333.278.045.361.13-.13.112.299-.209.57.21.33-.143.123.05.386-.204.363.07.535 1.225.465.197-.09.447.061-.041.61.1.141-.087.25-.337.036-.358.341-.081-.322.131-.265-.892-.242-.316.133-.291.326-.643-1.057-.307.126-.712-.452-.198.25-.49-.58-.442.417-.172.541.073.264.653.335.117.37.47.08-.131.498.05 1.037-.14.23.412-.05.16.54.377.039-.1.324-.15.025.25.264-.185.34.16.667-.113.203.236.056.073.169-.106.19.183.285.085.65-.394.095-.069.652-.189.208-.281.011-.017.273-.265-.042-.39.176-.12.386-.366-.135.018.184.39.213-.044.172-.226-.032-.07.224-.23.095-.565.635-.101.41-.513.038.004.176-.386.06-.386.263-.137.469.105.165-.082.403-.205.397.02.364-.236.584-.256-.057-.053.488-.773-.034-.557-.252-.508.412-.242-.021-.523-1.81.176-.542-.66.22-.08-.403.113-.06-.224-.167-.187.422-.374-.034-.007-.293.323-.22-.256-.3-.168-.502.061-.162-.21-.065.047-.103-.284-.226-.107-.29-.88-.682-.837.26-.438-.82L0 33.94l.203-.032.425-.37-.477-.654v-.366l.321-.547.016-.417.365-.297-.02-.314.317-.137.228-.464.544-.412.25.587.364-.121.099.269.358-.02.565-.465-.336-.412.614-.245-.077-.334-.199-.064-.104-.21-.362-.035-.268-.251-.378-.025.053-.502-.745-.517.016-.28-.432-.035.053.329-.152-.129-.34-.01.016-.137.201.038.389-.368-.087-.19-.443-.043-.008-.167.22-.127.218.156.235-.02.149-.353.003-.494-.034-.278-.25-.183-.615-.032-.046-.119.165-.172-.183-.325.755-.176.184-.234.447-.17-.188-.39.215-1.314-.325-.054-.327.172-.179-.202.154-.237.428-.183-.204-.517-.022-1.066-.51.012-.187-.49.14-.172-.084-.383.142-.48 1.05-.49.223-.306-.097-.206.435-.897-.124-.73.055-.795.144-.293.403.066.12-.365.03-.833-.108-.135.162-.026.384-1.01.234.04.076.349.21-.02.028-.226-.194-.114.265-.115.022-.616.385-.112.172-.305-.023-.937.414-.314.226.246.337-.306.168.114.112-.273.33.122.105.41.164-.244.14.077-.06-.17.247.004.232-.3.57.007.046-.162.149-.03.046-.403.298-.113.094-.17.104.18.13-.1-.095-.403.223-.257-.138-.434.05-.252.513-.111.022-.155.473-.27-.128-.54.116-.236.507-.015.254-.236.288.084.208-.244-.051-.553.277-.366-.02-.263-.284-.234-.16.038-.072-.27-.312.128-.184-.064.009-.23-.236.067-.353-.767-.526.134-.133-.222-.405-.14-.253.285-.228-.053-.155.265-.125-.106-.008-.281-.169-.029-.043-.217.194-.074.063-.393.176.004.26-.394-.078-.21-.203-.112-.053-.385-.19-.148.071-.345.302-.12.362.43-.023.12.375.185.415-.08.375-.315.202.13.295-.066.264.275.69.004.245-.214-.027.136.159.162.172-.097.43.118.778-.05.332.176.167-.064-.101-.194.345.008.39-.218.027-.332.54-.093.353-.264.773.564.873-.015.607-.277.156-.442.355-.22.076-.32z" fill="#777"/></svg>