<svg fill="none" height="40" width="40" xmlns="http://www.w3.org/2000/svg"><path d="M3.438 9.5l.598-.941-.316-.66.186-.922-.453-.79-.926-.789.155-.833.693-.005.92.63 1.597-1.17.134-.504 1.681-.389.442-1L9.514.968l.905.095.918-.415.403.037.528.622 1.204-.237.298-.983.268-.087.287.267.3-.136-.292 1.272.48.608.383-.027.472 1.128.947.617.432-.141.463.368.72-.1.114.93.324-.24.637.497.124.426.227-.157.549.312.265.477.335-.075.363-.842.793.333.343-.347.41-.012.753-.788.812-.219.14-.372.553.199.91.928-.337.567 1.008.509.39.74.4.13-.139 1.018.929 1.485.622-.075-.021-.609.367.159.329-.528.328.275.364-.51.707.136.969-.608-.095-.349.98-.335-.096 1.253.3.68-1.079.637.03.672-.242.297.373.445.844-.748.331.25.4.192-.08.578.944.526-.64.921.024.947-.315.522 1.173-.05.626.435-.218.832.27.507.59.207.979 1.377.463.109-.933 2.853.39.407-.155.312.27.68.53.03.601 1.028-1.456 1.334.116.46.378-.078.545.52-.222.71.594.273.02.702.913.975.102.467.69.646.257.86-1.465.11-.616-.546-.278-.794-1.725.143-.154-.374-.458-.199-.682.408-.784.04-.304-.555-.288-.215-.257.166-.482-.591-.678.036-.059.304-.285-.072-.426.498-.993.047-.702.56-.677.075-.184.416-.696-.326-.787.33-.523 1.006-.494.263.29.739-.34.524.243.222-.623-.32-.343.239.13.51.585-.022-.073.893-.525-.31-.001.702-.657.836.617.792-.09.338.535.301.035.606-.615.286.379.482.484-.01.086.416-.133.297-1.406.812-1.147.292-.211.351.138.272-.374-.173-.387-.702-.269.493-.824.057.432-.435-.033-.338-.584.632-.639-.587-.413.112-.69-.419-.575.056-.202-.62-.636-.213-.229-.351.538-.44-.066-1.24-.878-.74-.504-.147-.241.181-.287-.476.11-.508-.22.211-.298-.17-.604-1.175-.581.363-.43-.346-.065-.47-.472.328-.67-.78-1.2-.559-.13-.675.313-.777-.426-.24.012-.755.528-.413-.111-.194-.531.147.246-.474-.364-.401-.416.34.026-.392-.223.297-.045-.285-.3.132-.256-.505-.417.376.2-.318-.808-1.17-.188-.69-.046.353-.508.182.244.68-.476.147.001.316-1.442.172-.077-.477-.366-.28.217-.718-1.765-3.2-.947-2.354.581.036-.9-1.87-1.29-.616-1.106-.929-.474-.217-.595.155L0 16.367l.972-1.15-.487-.284.028-.687 1.332-.542 1.258-1.466 1.034-.521-.95-1.267z" fill="#777"/></svg>