<svg fill="none" height="22" width="40" xmlns="http://www.w3.org/2000/svg"><path d="M31.434.63l.19.302-.018.276.412.58.337-.005.478-.39.202.228-.317.668-.587.085-.507.513-.485.133.244.19.235.509-.27.395.145.246.558-.288.67-.698.607-.042.609-.325-.326.665.07.224.212-.044.127.678.535.823-.204.444-.772.26.146.389-.45.397-.185-.056.039.236-.354.026-.198.207.323.365-.744.572.382.212.348-.064.194.387.16-.05.241-.53.354.007.472-.348.58-.02.588.341.16.37.53.045.316-.137.186.318.48.223.655-.415.554.548.737.177.807.587-.252.031-.223.26.056.336-.213.329.448.053.024.24.26.117-.253.293.075.694-.463.053-.084-.312-.356.157-1.05.897-.04.336-.463.006-.343.596-.244.034-.305.36.273.698-.176.519 1.77 2.504-.172.26-.258-.14-.252.092-.592-.442-.743-.206-.083-.197.181-.135-.033-.239-.16-.035-.404-.63-.612-.202-.092.117-.59-.03-.614.58-.351-.142-1.61.212-1.349.682-.683 1.097-.402.25h-.472l-.526 1.018-.39-.173-.422.68-.537-.076-.707 1.003-.86.337-.443-.232-.146-.375.195-.397-.203-.085-.044-.4-.164-.108.336-.2-.261-1.165.36.098.683-.571.744-.237.013-.597.385-.424.503.3 1.473-.478.37-.019.227.24.085-.222.763-.584-.277-.52-.066.088-.124-.161-.225.014-.162.286-.03-.293-.145.207-.122-.1.274-.585-.057-.362-.282-.103-.107-.28-.253-.158.098-.197-.157-.18.123-.121-.26-.332.201-.084-.05-.125.29-.394.71-.602.342-.628-1.033-.069-1.492.152-.62.587-.896.307-.462-.225-1.943.744-1.161.272-.147.278-.3.042-.268.243-.453-.005-.047.135-1.518.708-.196-.35-.432.204-.474-.212-.15.084-.162-.367-.28.232.31.412.017.268-.694.342-.656.881-.711.53-1.079 1.21.186.136.065.34-.427.097-.658.7-1.27.249-.964-.19-2.238.356-.692-.363-.008-.157-.301-.176-1.455-.236-.135.153.043.238-.41.196-.856-.011-.407.284-.318-.072-.523.254-1.148.066-.03-.872-.475-.438-.07-.748.315-.47-.205-.331.423-.02.129-.14-.421-.305-.03-.56-.243-.613-.54.147-.521-.165-.974.09-.204-.25-.291.14-.55-.696.064-.257-.125-.193.45-.56.108-.456-.078-.275-.2-.155-.227.043-.147-.31.804-.022.324.348.781.022.248.567.397.168.443-.423.488.084 1.055-.771.366.008.354.615.435-.13.184-.208.327.145.317-.295.404.158.302-.436.437-.175.48-.69-.522-.568.163-.487.768-.592.182.234.47-.253.471-.443.244.24.228-.25-.069-.311 1.33-.237.086-.52-.333-.304.636-.504.2-.478-.037-.259.19-.068.062-.248.741-.279.195.175.115-.236.291.195.588.009.76-.246.296.162.47-.303.559.277.513-.808-.11-.177.065-.335 1.092-.885.406-1.01.497-.5.471-.035.105-.294.401-.287.864-.016.479-.938.564.347.452.495.14.599.503-.154 1.03.42-.173-.332.687.228.16.216.878.05.107.408.979.184.301-.023.195-.267.091-.54.344.09-.062-.667.328-.03.088-.344.268.094.95-.835.129.157.575-.431.52.069.84-.633z" fill="#777"/></svg>