<svg width="60" height="126" fill="none" xmlns="http://www.w3.org/2000/svg"><path d="M37.634 122.761l-.94-.275-.406.773-.297.176-.274.022-.035-.031-.943-.861.108 1.272.019.219.026.31.29.113.45.177.092.035.098-.001.627-.008.214-.003.146-.157.626-.673.117-.126.015-.172.067-.79zm20.524-64.183l-.985-.157-.178.75-.712-.112.346.826.226.537.239.57.507-.352.215-.15.194-.134.02-.235.128-1.543zm-46.656-1.349l-.594-1.808-.372 1.866-.069.346-.086.43.416.142.206.069.947.32-.312-.95-.136-.415zm46.971-.68l-.98.158.039.934.984.102.108-.425.033-.131-.037-.13-.147-.509zM22.392 41.177l-.408-.302-.296.412-.94 1.313.674.713 1.185-.755.224-.142.007-.266.01-.37.008-.26-.21-.155-.254-.188zm36.845-8.65l.143-.411-.887.211-.598.142-.407.097.024.418.019.329.018.329.31.113.382.139.168.061.17-.06 1.046-.37-.111-.968-.277-.03zm-54.182.348l.895.228.038.022L7.18 31.06l.41-.71-.818-.04-.206-.01-.236-.01-.159.175-.225.249-.086.094-.03.124-.17.704-.541.993-.065.112v.134zm4.752-3.687l-.144.554 1.16-.904.46-.358-.498-.856-.41.17-.231.095-.063.241-.037.144-.193.07-.218-.488-.197.04-.344.072-.037.258-.026.02.017.044-.004.025-.049.339-.093.651.652-.084.236-.03.019-.003zm15.932-7.762l-.13-.802-.658.479-.547.398-.18.132-.023.222-.03.3-.021.202.126.16.175.22.409.514.387-.53.451-.62.123-.168-.034-.207-.048-.3zM3.537 18.434l-.196-.361-.392.122-.098.03-1.333.416 1.294.525.146.06 1.294.525-.666-1.227-.049-.09zm24.255-1.236l-.904-.4-.43.678-.04.064-.02.073-.587 2.188.94.333.595-1.338.016-.034.01-.037.42-1.527zm7.288-9.022l-.319-.374-.38.312-.109.09-.477.392.483.385.042.033.165.692.21.88.634-.646.138-.14.175-.179-.038-.247-.088-.57-.021-.14-.092-.108-.323-.38zM6.48 4.553l-.225.054.036-.11-.146-.049-.068.202-.248.06-.267-.092-.049.14-.165.477.479.161.146.05 1.166.391-.562-1.094-.098-.19zM25.121.913l-.33-1.886-.635 1.807-.323.921.825.52.412-.41.185-.184-.045-.257-.09-.51z" fill="#777" stroke="#777"/></svg>