<svg fill="none" height="37" width="40" xmlns="http://www.w3.org/2000/svg"><path d="M20.425 0l.002.39-.327.392-.017.406 2.861.14-.064.188.13.027.091.195-.402.41.03.23.246.014.277-.143.086.082-.178.996.218.19-.161.36-.165-.041-.062.089.01.129.12.033.178.296-.004.177.21-.015.037-.215.485.085.385-.252.393.207.118.433.173.054.222-.081.174.286.137.03.327-.22.199.177.436-.306-.02.301.139.051.058-.149.171-.038.023.382-.18.242.16.074-.071.304.226.03.02.251.348.03.025.185-.225.257.21.467-.067.255.138.195.123.706.284.065.05.292.68.46-.037.259.542.073.151.128.147.262.292.194-.034.204.19.09-.036.11.218.248-.127.056.006-.121-.176-.026-.417.41.21.07.01.152.142-.197.091.077-.138.1.022.092-.183.03.094.108-.156.047.14.085-.109.246-.112-.073-.068.093.024.085.221.038-.065.23.394.088.175-.107.387.315.23-.173-.138-.118.025-.182-.147-.082.06-.3-.112-.134.268-.17-.166-.142.336-.06.14.061.07.171.201-.052.06-.197-.26-.14.265-.141-.348-.26.259.006.186.204.429-.087.122.25-.168-.028-.056.097.224.147-.2.078.386.055-.002.355.277-.204.279-.047-.04-.402.639-.314.044-.281.224-.078.507.428-.196.758.002.376.09.03-.056.438-.104.008-.09.525.14.156-.154.007.099.21.144-.085.165.093.105-.436.39.017-.054-.131-.212-.074.08-.217.402.225.114-.079-.004-.123.137.036-.055.123.115-.192.173.187.14-.156.06.049.13.096-.03.357.177.116.026.223-.141.213.177.094-.09.115.022.212.215.07.064.199.151.08-.066.19.077.134.297.092.353.28.18-.085-.102.22.239.317-.021.111.152.087-.084.127-.225.037-.065.232-.421.144.104.143.202-.055-.038.21.32.11.209-.185.138.263h.085l.019-.16.13.045-.085.177-.399.074-1.031.547.076.245-.048.25.162.003-.073.117.206-.103-.057-.107.078-.308.103.133.382-.055.507-.248.014-.18.158-.11.623.248.044-.18.192.127.295-.055.07.254.117-.071-.025-.208.27.053.045-.247.427.074.05-.077.21.156-.162.209-.162-.03.085.268-.223.046.07.182-.348-.028.074.217-.123.084-.015.282-.426-.1-.202.192-.243.014-.07.214-.268.105-.034.23-.313.049-.138.209-.21-.021-.66.476-.435.041.022.214-.446.04-.203.313-.396.297-.36-.003-.148.24-.259.045-.222.252-.448.199-.261.324.045.093-.155.296-.23.057.03.1-.132.099-.398-.032-.089.193-.154-.017-.289.386.006.325-.22.08-.021.117.15.113.044.723.2.443.113.055.061.215.358.22.39.046.016.122.332-.093.229.041.222.238.077-.11.298-.02.234-.195.59.143.07-.314.285-.253.102-.065.255.119-.114.441.162.027-.101.245.258.23.053.167-.124.025.035.378-.436.148-.184-.179-.423.028-.25.225-.17.056-.381-.11-.635.35.168.457.135.015-.032.145.16.075-.102.117-.432.048-.137.102.208.35.283.018.193-.094.092.17.25.104.149.344.023.364-.065.218-.084-.011-.138.255-.165.085-.231-.134-.008-.28-.152.091-.061-.12-.235.075.167.327-.05.654.154.339.32.324-.129.088-.073.288-.2-.04-.25.094-.21-.259-.246.003-.123-.11.13-.277-.045-.182-.349.112-.01.103-.119-.037.043.099-.144.145.064.101-.22.086-.28-.34-.077.073-.135-.05-.042.097-.399-.231-.2.19-.307-.006-.095-.34.053-.131-.095-.103-.193.231.052.208-.151.238.06.505-.399.098-.395.252.07.462-.442.241-.082-.055-.303.106-.078.102-.124-.18-.216-.07-.02.134.142.095-.052.195h-.138l-.014.292-.149-.206-.315.008-.12-.128.09-.078-.07-.092-.474-.304.037-.299.226-.34.24.13.077.154.232-.04.157-.168.142.322.28-.144.08-.32.248-.068.009-.18-.21.009-.061-.146-.15-.003.137-.407.243-.128-.071-.286-.21-.036-.124-.186-.05-.288.129-.02-.03-.096.193-.234.256.282.281-.187.013-.182-.094-.086.154-.12-.084-.094.05-.097-.246-.208-.114.087-.047-.089.094-.2-.099-.092.053-.293-.36-.176-.667.384-.143-.172-.593.148-.84-.198-.23.051-.143-.23.095-.21.207-.137-.23-.237.031-.13.07.101.12-.028-.102.184.234.028.123.202.507-.254.032-.145-.447.028-.067.089-.227-.102.144-.169-.122-.195.043-.074.174.384.107-.316-.084-.218.148-.094-.027-.09-.85-.013.024.271-.221.133.014.384-.285.036-.059.114-.562-.164-.032-.184-.129-.107-.08.064-.095-.188-.103.23.147.38-.032.304.044-.103.266.13.41-.044.06.218h-.122l.03.222-.172.039-.088.203-.228.025-.426-.705-.11.542.191.081-.153.176.03.13-.192.07.04.212-.204.22.305.137.173-.039.006.147.182-.027-.324.48-.015.274-.14.171.532.01.112.096.052.14-.112.1.51.92-.327.47-.071.308.158.694-.15.26.147.26-.154.038-.276.342-.194.1-.081-.069-.234.237-.15-.016-.21.195-.188.016-.18.193-.015.223-.239.243.16.23.085-.091.339.204.25-.062.095.148-.123.096.231-.048v.103l-.138.086-.211-.033-.279.28-.284.064-.152.215-.552-.115-.311.244-.184-.16.026-.118-.192-.345-.175-.019-.112.198-.255-.132.03-.45-.146-.13-.26-.002-.054-.18-.191-.027-.09-.197-.108.018-.039.16-.203.022-.283-.546-.224.06-.083-.118-.176.228-.1-.215-.232.077-.093-.06.116-.257-.097-.219.108-.373-.38-.161-.291.192-.023-.432-.133-.028-.268-.35-.203.063-.06-.104-.003-.372.285-.345-.09-.297.04-.303-.2-.184.017-.201-.175.065-.012.207-.189.232-.206.083-.213-.204.113-.233-.5-.202-.143-.232.284-.616.162.032.056-.21.083.046.093-.152-.093-.054-.187.124-.388-.22.107-.16-.064-.343-.197.148-.174-.086-.057.06-.169.435.128.1-.308.188-.254-.198-.617.023-.179-.29.018-.191-.496-.077-.2-.172-.2.283.032.203-.196.014-.128-.268.027-.22-.237.028-.148-.27-.287.071-.2-.21.128-.099.213.066.127-.157-.177.047-.387-.12-.089.101-.206-.01-.366-.192.001-.222-.15-.044-.493.397-.11-.204-.198-.04-.083.357-.212-.088-.058-.245-.626.187-.205-.188-.585-.016-.48.262-.145-.158-.243.229-.869-.367-.736-1.277-.233-1.056-.583-.61-.101-.283-.32-.345.063-.647-.1-.91-.223-.049-.368.152-.622.065-.547-.19-.837-1.232-.061-.658.41-.871.052-1.232-.074-.327-.463-.248-.851.094-.292-.057-.426-.315-.976-.484L0 17.615l.134-1.079.296-.762 1.294-1.22.338-.51.365-.278.417-1.087.224-.347.953-.9.536-.134.36.074.498.546.029.388.36.63.577.096 1.772-.74.623-.124 1.133-.016 1.089-.457.164-.877.285-.415.859-.783.535-1.595.377-.516 1.489-.892 1.05-.482.265-.627.407-.533.83-1.614.547-2.004 1.001-.446.802-.232z" fill="#777"/></svg>