<svg fill="none" height="40" width="34" xmlns="http://www.w3.org/2000/svg"><path d="M24.498.298L24.927 0l.06.427.39.314.527-.33.55 1.069.269.154.2-.193-.1.462.26.433.22-.165.458.133.797.672.06 1.127-.488.4.208.318.577.193.183.564.523-.05.627.38.375-.102.58.533.53-.574.03.307-.392.395.749-.052.244-.448.351.638.34.158.183.168-.23.736-.464.357-.568 1.156-.53.248-.27.613.174.143-1.531.724-.077.569-.882 1.18-.295 1.386-.376.276.28.796-.614 1.29.256.586-.264.237.58 1.12-.145.385.223.256-.318.16.033.328.36.175-.26.765.156.36-.2.226.157.523-.191.93.98 1.217-.256.613.33.627-.42.174.055.28-.506.306-.114-.289-.56-.233-.471.582-.949.195.13 1.402-.393.584.174.238h-.595l-.245.55-.211.011.028.418.444.581.947-.224.394.159.005-.344.454.334.252-.061.374.32.113.624.505.411.796-.247-.159-.426.18-.25 1.01-.295 1.455 1.157.21.669-.324.245.34.376-.032.319-.27.132.785.266-.272.217.037.338-.319-.123.032.325.534.042-.489.263-.043.747-.15-.12-.1.265.11.506.596.613-.262.303.285.126-.193.312-.537-.012-.109.574-.49-.131v.447l-.776-.006-.676.638-.14-.114-.328.364-.403-.435-.267.446.127-.286-.32-.083.01.286-.266.185-.937-.525-.188.505.496.173.127.305-.911-.04L26.63 40l-.386-.216-.336.2-.23-.492.357-.017-.324-.363.21-1.225.243-.019.13-1.022-.21-.07-.006-.878.459-1.767-1.183-1-.522.183-.105.657-1.49.73.093.939-.65.11-.645.475.003-.827-.901-.128.467-.182-.522-.343.131-.226.392.064-.285-.582-1.002.201-.434-.474-.604-.017.813.608-.618.33.608.325-.142.46-.469.122-.161-.398-.328-.145-.785.141.389.333-.626.395.26.315-.138.697.342.193-.06.424.322.276-.535.403-.902-.734-.409.248-.92-.203.152-.537-.516-.091-.056-.196.159-.218.262.171.252-.576-.324-.197.363-.11-.219-.251.426-.07-.05-.215.322-.234-.212-.18-.33.46-.027-.356-.489-.16.974-.958.41.06-.013.282.296-.13-.508-.576.084-.258-.445-.212.08-.474-.68-.455-.344-.61-.352-.3-1.264-.169.084-.605-1.585-1.072-.118-.682-.662-.15-.285-1.648-.323-.454.157-.595-.492-1.091.526-.599-.058-.431-.812-.07-.047-.587-.527-.068.165-.709-.373-.173.42-.565-.052-.891-.401.089-.135.347-.323-.12.046-.701-1.018.714-.463-.411-.762.511-.32-.07-.407-.667-.52.188-.402-.124-.276-1.011-.915-.482-.898.587-1.131-.2-.09.503-.489.036.01-.414-.413-.691-.282-.078-.024-.3.146-.208.384.097.377-.839-.508-.445.413-2.322-.2-.192-.646.333-.572-.032L0 14.114l.938-.96-.21-.454-.305-.063.149-.438 1.36.476-.076-.219.541-.575.353.09.82-.377.516.412.339-.114.04.36.324-.124.788 1.14.804-.278.205-.443.206.515-.244.293.275.28-.18.244.68.315.013-.476.287-.232.517 1.064-.396.33.016.459-.398.307.165.4.509.288.024.74.772-.268.09-.25-.255-.265.395-.743.348.14-.16-.424.46-.214.697-1.185.717.587.475-.072.131.285.473-.046.13-.33.765.222.09-.656.699-.206.26.224.35-.063.534.8.91.194.56-.303.193.115.446-.726.412.115 1.335-.892-.61-.24-.195-.492.4-.19-.138-.89.26-.132-.18-.133.601-.82-.685-.375.227-.001-.085-.294.502.491.763.133.277-.24-.245-.265.681.267.124-.371-.22-.315.31-.235.446 1.252.412.044.11.253.571-.273.233.291.258-.063.272-.313.13-1.236-.368-.114.082-.195-.298-.315-.547.363.16-.467.662-.07.689-.683.43-.086.249-.33-.289-.068-.119-.351.614-.56.537.334.255-.272.509.589v.328l.5-.358-.41-.648.002-.538.334-.413-.376-.277.303-.734-.583-.507.038-.479-.291.291-.16-.372.09-.967.197-.356-.202-.496-.624-.546z" fill="#777"/></svg>