<svg fill="none" height="28" width="40" xmlns="http://www.w3.org/2000/svg"><path d="M1.11 17.275l.063.39-.158.089zm14.155-9.536l1.066-.061.485-.236.295.066.378-.263.795.01.381-.182-.04-.22.125-.143 1.35.22.28.164.008.145.642.337 2.079-.33.894.175 1.18-.231.61-.649.396-.09-.06-.316-.172-.127 1.001-1.123.66-.491.61-.818.644-.318-.016-.25-.287-.381.26-.216.15.34.14-.077.44.196.4-.188.183.325 1.409-.658.043-.126.421.005.25-.226.278-.039.136-.257 1.078-.253 1.804-.69.43.208.832-.285.574-.545L38.783 0l.959.064-.317.583-.66.559-.27.366.047.115-.187.079.242.308-.114.112.145.168-.09.183.234.146.1.26.261.096.053.336-.255.542.114.094.134-.193.028.272.15-.265.21-.014.114.15.062-.081.257.482-.708.543-.08.206-.21-.222-.344.017-1.367.444-.468-.279-.357.394-.012.554-.69.22-.636.53-.333-.09-.541.54-.56.296-.227.051-.363-.24-.266.139-.531.898-.731.521-.369.1-.153-.147-.186.343-.188-.141-.487.291-.035.244-.345.15-.054.582-.306.167-.219.324-.143-.126-.026-.591-.082.037-.57.697-.07.823-.427.126-.653 1.082-.087.71-.229.461.155.618-.402.226-.21.294-.255-.118-.294.34-.101-.225.117-.447-.16-.397-.134.21-.406.19.113.428-.837.618-.464.733-.458.177-.605.594.405.581.418.207.103.384-.166.25.14.245-.54.444-.335 1.051-.197.335-.23-.012-.123.216.086.472-.142.087.084.14-.153.29-.202.145.002.316-.281.15-.192-.21-.082.07-.016.475-.198.22.182.244-.185.552.2.088-.29.06.073.096-.234.447.022.598-.245.055-.41.054-.153-.121-.04.128-.267-.035-.215.152-.403-.997-.472 1.156-.42.154-.08.552-.386.052-.12.476-.29.105-.03.145-.28-.077-.091-.7-.795.01-.53.017.377-.904-.262-.565v-.304l.125-1.066.3-.554-.365-1.136.366-.146.588.49.259-.015.106-.176.27.023.082-.212-.097-.35-.13.084-.106-.077.137-.026-.083-.133-.203.025-.017-.414.237-.037.133-.497.37.06-.115-.283.613.156.286-.416.87-.296-.251-.21.174-.251-.05-.332-.15-.02-.149-.322-.12.044-.28-.295-.086.047-.037-.175-.286.132-.069-.387-.194.03.488-.492.056-.385-.322.244-.19-.02-.094-.363-.354-.077-.23-.418-.21-.06.006-.285-.304-.156-.326.2-.661.063-.432.312-.048-.991.17-.405.288-.26-.391-.033-.046-.233.891-.947-.355.117-.398-.12-.285.237-.508.093-.39-.058-.437.293-.329-.372.036-.321-.358-.149-.556.42-.07.742-.322.343-.368-.243.17-.176-.037-.405-.356-.076-.47.793.188-.021-.358.37.21.026.138-.157-.027.118-.513.225-.161-.097-.54.112-.366.647-.328.166-.202-.044-.076-.329.105-.582-.843.272-.084-.06.181-.167-.186.027-.306.187.18-.464-.39.006-.157-.425-.17.03.02.211-.228-.27-.292.095-.17-.098-.202.309-.237-.049.044-.297-.388.046-.388.366-.116-.094.143-.178-.295-.157-.442.447.138-.435-.36-.404-.309.185-.203-.177-.2.027-.257.254-.897.21-.404-.118-.72.582.108.093-.086.132-.403.157.067.352-.137.21-.258.068.788.934-.93.407.095-.601-.32-.616.056-.358-.183-.343.48-.868-.247-.044-.063-.123.215-.086-.227-.242.001.208-.106-.028-.12-.384-.165.017.161-.146-.037-.201-.243-.162.073-.13-.125-.199-.204-.073.098-.064L0 12.734l.235-.164-.22-.035.2-.148-.152-.224.129.081.078-.09-.125-.244.258.116-.051-.228.192-.067.007-.158.476-.22-.066-.13-.123.044.274-.448-.114-.198.059-.638.098-.045-.13-.278.123-.185-.123-.385.034-.236.604.098 1.19-.225.27-.111-.03-.278.195-.313.549.04.338-.341.346-.041.95.716.964.238 2.161-.084.27-.287 1.048.105.468.18.456-.397.534.326.829-.225.401.116.726-.334.353-.44.25-.016.558.412.38.076.274-.096.122-.234z" fill="#777"/></svg>