<svg fill="none" height="29" width="40" xmlns="http://www.w3.org/2000/svg"><path d="M38.5 8.845l.007.03zM6.45.032l.267-.028-.016.28.458.148.022.246.366-.087.32.615 2.622.418.57 1.119-.133 1.08-.254.436.918.404.127-.135.168.2.291-.215.497.45.57.084.128.183-.086.217.745.265-.306.282 1.393-.1-.15.493.268.48.997.156.59-.449.37.084 1.455-.813.805.689-.017 1.275.685.466.27-.063-.01.37.79-.403.099-.341.548-.139.885.34-.019.203.451-.074.202.237.28-.258.601-.023 1.73.732.229.371 1.292.674.275-.328.548.178.488-.207-.02-.217.308-.032.023-.245.664-.138.238-.497.216.014.158 1.22.572.416.754-.064.077.335.375.023.23.212.223-.542.786-.29 1.121.534.37-.113.208-.377.45.248.263-.041.187-.511.474.294.318-.452.31.616.522.232.05.247h.259l.037-.243.485-.411.07-.884.316.222.184-.238.506-.131.017.176-.437.377.119.167.261-.039.023.263.312.228-.301.25.058.167.24-.052.196.245-.624.65-.561.259-.601.692-.26-.018-.196.33-.394-.1.032.635-.243-.028-.055.139-.146-.198-.57.417-.097.978-.21.209.153.364.708.176-.222.208.219.123-.097.404.272-.014.23.417.705.305-.104.481.15.036-.267.41.118.448.298.293-.02.21-.344-.05-.16-.217-.027.146-.141-.077-.005-.198-.483-.102-.217.285-.16-.105-.126.452-.238.007-.202.272-.22-.094-.18.354.054.241.186.051-.039.355.583.488-.27.387.11.312-.394-.19-.034-.228-.608-.09-.19-.48-.62-.01-.217-.33-.262.155-.062.44-.468-.121.114.291-.186.193-.004.411-.646-.293-.176.2-.374-.16-.26 1.191-.326-.147-.315.145-.52.58.091 1.232-.057.242-.294.026-.289.295.146.185-.372 1.727-.968-.32-.257.5.105.423-.28-.253-.175.15-.141-.158-.296.032.044-.265-.23-.224-.212.016-.155.374-.508.134-.526-.394-.452.621-.33.153-.137.821-.184.028-.11.47-.294-.093-.521-.57-.576-.163.268-.41-.068-.442.152-.229-.473.073-.376-.318-.18.236-.496-.163-.071-.901-.305-.365-.382.044.093-.34-.807.422-.583-.605-.808.012-.326-.21-.323.969-.379.233.122.932-.709-.187-.066.336h-.253l-.15.36-.255-.232-1.64.213-.005.26-1.056.305.15.295-.642.445-.193-.067.086-.47-.184.219-.506.026-.176.32-.567.035-.143-.803-.368.09-.015-.521-.3-.16-.936.648-.166.554-.69-.165-.054.252-.356.068.032.325-.257.464-.314-.457-.298.064.041-.245-.324-.27-.373-.055-.167-.244.123-.069-.3-.174.009-.265.259-.194-.269-.56-.19.015.087.11-.185.187-.178-.199-.14.16-.235-.18-.124.073.051.326-.267-.265-.048.314-.243.208-.507-1.16-.439-.228-.512.798-.487.134-1.217.247-1.757-.196.348-.878-.353-.226.13-.262-.265-.218-.007-.284-.215.04-.534-.451.029-.434-.293-.333-.081-1.243-.207-.06.315-.952-.177-.509.115-.156.31-.072.17-.377.41-.024.636-.585.199.085.468-.19.224-.344.312-.03-.11-.063.155-.158.076.089.229-.218.236.202.302-.205-.04-.185.354-.047-.227-.259.33-.07.53-.757 1.282-.706-.056-.519.2-.222.432-.095.37.247.07.302.665.073-.016-.14.281.046.103-.65.391-.036.176.44.377-.134.319.327.291-.058.09-.377-.035.301.168.079.026-.468.603.072-.242-.29.159-.298-.513-.389-.237.029.013-.389-.847-.131-.12-.35-.458-.25-.443.11-.76-.48-.286.082.008-.305-.613-.637-.337-.029-.249-.408-.053-.858.545.175.27-.365.373.144.18-.64-.083-.512-.799-.094-.49-.576-.234.124-.64-.14v-.611l.484.085.094-.21.592-.104.28-.506-.007-.39 1.531.392 1.144-.25-.098-.397-.616-.118-.222-.622-.407.216-.108-.092-.075-.159.222-.466-.09-.485-.256-.078-.324.33-.3-.192.074-.288-.323-.12-.086.215-.306-.132-.034-.363-.184-.098.175-.174-.047-.748-.402-.217.24-.243-.653.023.316-.973-.195-.314-.455-.221.223-.406-.072-.192-.5.128-.206-.105.238-.255.401-.303-.266-.069-.04-.332.506-.19.773.144.549-.508L6.286 0l.163.032z" fill="#777"/></svg>