<svg fill="none" height="40" width="26" xmlns="http://www.w3.org/2000/svg"><path d="M.173 16.461l-.165-.12.208-.044-.017-.23.413-.207.129-.188.127.26.236.01.407-.2.137-.411-.25-.046.165-.23.108.231.102-.004-.11-.284.439-.814-.19-.094-.26.126-.122-.104.372-.337.306.136-.018-.349.151-.24-.054-.251-.452-.154-.008-.135-.38-.066-.11.139.084-.137-.144-.197.014-.317.098-.066.105.151.041-.172-.148-.037-.021-.302-.239-.04.02-.255-.174.155-.088-.11.183-.05-.052-.241.211.249.086-.301.203-.021-.017.107.153.063.076-.297.387-.153.028-.328.115.2.3-.038.127.475.349-.139.036-.181.267.013-.168-.194.2-.22.012-.235.879-.326.385.005-.066-.504.292-.129.018-.161-.226-.119.064-.09.515-.003.01.093.327-.135.285.44h.272l-.036.186.183.01.375-.2.032-.472.318.013.278-.14.203.076.207-.128.138.249.436-.122.03-.259.19.028.006.196.192.11.166-.055-.013-.443-.16-.004.194-.155.001-.184-.283-.446.191-.224-.012-.313-.303-.246.04-.23-.158-.043-.035-.195.209-.053.11-.504.236.116.076.266.257-.054.366.304.126-.31.208.218.142-.185.036.374.21.174.692-.177.135.142.238-.213.235.15.07.256-.019-.303.404-.152.177.26.38-.115.048.232.165-.007.148-.339-.258-.033.062-.35-.221.013-.016-.215.248-.145-.177-.005.126-.164-.146-.12-.047-.308.471-.055.073-.237.34-.095-.017-.312.21-.01v-.257l.278-.007v.341l.23-.39.274.475.153.047.043-.272.165-.065-.067-.264.264-.03.142-.233-.284-.18.018-.242.348.175.637-.276.007-.697.207-.038-.043-.201.12-.138-.257-.112.177-.406.19-.022.202.153.05-.125.139.186.287-.002-.075-.25.305-.128.116-.38.2.017-.061-.205.278-.343-.027-.225.433-.267.138.14.155-.104v.278l.226.072-.287.46.435.025.162.276.251-.11-.004-.167.227.091.297.08-.216.457.187.287.016.31-.307.27.26.257.303.1.04.141-.053.135-.113-.067-.04.324-.176-.032.064.223-.134-.014-.129.323-.133-.051-.085.15-.035.11.344.109-.022.1-.626.33-.058.646.28.09.066.149.144-.19.118.14.232-.079.01.177.527.16-.01.192-.2-.049.025-.13-.069.161-.165.036-.002.151-.21-.058-.003.145-.35.013.142.136-.042.188-.162.107-.266-.097-.099.484.115.072-.415.33.103.065-.217.277.575.338.206.568-.258.577.1.762-.189-.024-.079.402.243.015-.01.197-.271.091.091.148.205-.055-.03.368-.407.11.134.278-.203.042-.072.155-.39-.043-.026.105-.319.032.278.381.327.136.385.1.464-.077.544.224-.007.297-.142-.064-.175.205-.182-.03-.077.106.007.149.123.005-.152.379.017.25.127.071-.104.426.108.166-.004.475-1.46-.216-.591.1-.435.242-.245.394.234.05-.116.518.458.44-.05.197-.194-.162-.293.111-.015.78-.306-.037-.009.09.32.324.191.66.27-.032.032.218.182.024.09.155-.242.22.21.16-.004.26-.143.037.123.129-.422.7-.212-.031.033-.138-.259-.002-.105.111-.59-.106-.447-.361-.127.113.058.318-.117.271.36.11.205-.076-.089.93-.383.143.1.26-.213.769.222.43.156.028.239.316.578-.057-.166.193-.012.264-.16-.081-.167.134-.023.254.398.304-.141.126.072.186.627.003.144.175.167-.023.038-.43.225-.29.448.154.275-.116-.008.318.446.04-.022.227.16.221.178-.116-.228-.482.06-.172.318.087.069.218.233.003.023.699-.62-.083-.073.207-.162.03-.018.164.253-.13.032.087-.388.466.32.09-.043.22.308.003-.128.189.11.155-.199.17-.008-.103-.236.006.03-.496-.225-.245-.931.192-.147-.293-.546-.064-.087-.26.065-.431-.438-.096-.027.135-.255.04-.043.162.242.022.27.359-.247.246.588.561.03.163-.134.024-.274.456.135.415.106.057.084-.224.189.188.197-.127.4.036-.024-.381-.215-.166.216-.044-.036-.248.118-.101.01.332.146-.123.037.114.125-.193.093.32.317-.103.073.182.221-.115.365.061-.089.208.274.012-.044.7.187-.022.024-.156.14.122.041-.336.204.158.222-.157.144.094.087-.045-.148-.117.217-.118.118-.01-.036.146.178-.053.074.166.023-.334.368-.129-.014-.133.29-.143-.12-.277.067-.152.385.021.138.197.308-.309.065.331-.2.076.012.348.119-.001.109-.24.295.05.019-.195.405.265.027.37-.187.25.137.135-.022.149-.232-.022-.032.123.126.183.42-.078.027.146.187.042-.06.345.25-.178.913.053-.2 1.287.237.13-.17.072.136.094.186-.089.065.12.2-.055.275.302.195-.253.123.215-.05.333-.155.098.158.177-.338.213.107.128-.146.09.015.167-.297.122.036.393-.198-.03.074.39-.323.032-.184-.189-.237.466-.348-.001-.114.545-.56-.1-.415-.417-.179-.02-.075.29h-.112l-.201-.31-.117.205-.087-.047.141-.197-.093-.128-.745.256.082.27-.382.707-.155-.056-.142.142-.135-.144-.359.095.042.21-.156.363.048.293.156.041-.174.18.28-.05-.03.395-.09.314-.343.403-.406.125-.026.343 1.462.2.236.354-.443.55-.163.41-.987.034-.042.323-.135-.072.02.284-.208.507-.335-.161-.187.113-.232-.226-.241-.023-.083.107-.696.118.036.288-.211-.07-.085-.298-.191.071.052-.11-.153-.11-.177.012-.074.206-.336-.104-.399.797.126.242-.077.157-.116-.13-.394-.076-1.044.002-.11-.346-.203-.158-.296.246-.157-.024-.151-.24.126-.09-.063-.209-.407.13-.353-.418-.3.02-.193-.365-.426.072v-.685l-.637.272-.66-.1-.293-.25-.139-.499-.463.052-.086-.219-.22.052-.153-.294-.326-.048-.528-.777-.356-.001.012-.462-.313-.231.006-.257.313-.048-.045-.21-.413.233-.033-.197-.301-.16-.024-.264.286-.121-.287-.152-.302.281-.12-.359-.237.047-.09-.094.042-.247-.361-.124-.017.18-.198.037.01-.314-.238.032.028-.079-.154-.04.134-.176-.092-.173-.701.207-.259-.563-.705-2.854-.137-1.65-.358-1.345-.206-.463-.216-.106-.168-.334-.172-.93-.163-.234-.494-1.617.221-.164-.16-.13-.049.183-.26.008-.083-.468-.14-.147.085-.077-.103-.434-.179-.192-.167.175-.613-.47.157-.035.042-.24-.106-.003-.082-.284.235-.144.202.067-.018-.245.222.172.327-.263-.047-.14.228-.285-.135-.326.063-.275.181-.237-.085-.228-.275-.2.471-.206-.074-.433-.257-.124v-.317l-.147-.27.173-.213-.185-.232.08-.255-.074-.26-.133-.072-.103.102-.13-.186-.093.169z" fill="#777"/></svg>