<svg fill="none" height="25" width="19" xmlns="http://www.w3.org/2000/svg"><path d="M13.152.725l.449.596 1.766.018 1.713 1.468.07 1.89.523.202.512 1.475-.658 1.063-.16 3.5-1.665 2.46.885 3.779 2.366 1.863-.486 1.213-2.052.646-.271 1.456-.764.887-.569.229-.84-.984-.585.42-.783-.599-1.257-.021-.8.249.192.66-2.051 1.616-2.264-.548-.405-.56-1.506.209-.772-.388-1.235.455-1.064-.58-.228-1.4L0 21.577l1.092-2.756-.517-.83.104-.815.695-.5-.759-1.641 3.215-6.98-.507-.704.591-.405-.106-.385-1.443-.665-.127-1.647.317-.3 1.038.47.86-.575.298.461 2.12-.973.933.27 1.953-1.603 1.169.16.325-1.093 1.298-.448L12.452 0z" fill="#777"/></svg>