<svg width="9" height="40" fill="none" xmlns="http://www.w3.org/2000/svg"><path d="M7.861 37.641l-.01.108.177.07.024.57.29.424-.164-.005.152.214-.132.043-.1.218.023.432-.094.098-.152-.113-.115.3-.106-.05.051-.25-.14-.072-.027-.288-.187-.168.016-.18-.247-.258-.149.042-.028-.451.084-.063-.092-.062.147-.314.229.013.13-.132.201.063.021-.156.198-.033zm-.65-.987l.206.407-.517.57-.13-.32.054-.302.392-.108-.005-.247zM5.61 33.829l.142.086.013.22.085-.029.169.184-.016.28-.189-.17-.318.09-.066-.146.074-.11-.196.039.045-.336.257-.108zm.805-.016l.17.177-.025.308-.338-.274.121-.196.089.14-.017-.155zm.15-.473l.067.426-.15-.39.084-.036zm-.25-.516l.09.163-.203.241.218.292.01.254-.095-.062-.107.073-.037.178-.074-.23.098.019.026-.135.033.104.057-.154-.216.13.022-.193-.145-.149-.026-.25.349-.28zm-1.402-.167l.02.218-.093-.118.073-.1zm-.524-.44l.082.046-.082.342.377.296-.025.105-.366-.13-.174-.237.036-.34.152-.081zm-.397-.571l.066.166-.107-.046.041-.12zm2.753-.489l.128.512-.076.006-.019.223-.033-.74zM2.76 27.888l.176.236.145-.063-.14.081.025.261-.198.106-.278-.036-.052-.435.22-.009.035-.199.067.058zm-1.31-8.09l.07.16.008-.098.128.107.01.304.13.07.044.533-.273.321.142.166-.272.33-.377-.18-.238.079.17-.404-.194-.259-.02-.56.103.104.286-.495.205-.143.053.105.026-.14zm.605-3.008l.214.362-.176.144.213.098-.013.084-.428.118-.1-.1.029-.166.172-.025-.044-.338.133-.177zm-.213-.155l-.065.036.043-.211.022.175zm-1.82-.249l.25.04-.005.303L0 16.695l.021-.309zm1.544-.054l.143.071-.189.17.046-.24zm2.315-1.18l.247.037-.106.115-.165-.079.024-.074zm-.247-.938l.063-.048.13.121.214.57-.055.103-.203-.335-.125.009-.235-.233.19-.266.021.08zm.095-.34l.017.291-.149-.14-.01-.168.142.016zm.186-.268l.085.55-.186-.15.002-.155-.249-.172.142-.029.096.133.11-.176zm.196-.267l.127.34-.098.289-.18-.245.151-.384zm-1.77-.12l.014.346.223-.036-.135.475.296.145-.103.13-.11-.1-.013.123.155.083-.24.184.026.547.108-.402.182-.02.02.172-.159.98-.059-.053-.013.112-.187-.084.03.182-.202.08.036.141.068-.075.033.088.17-.18-.04-.133.168.103-.218.925-.062-.147-.248-.073.002-.247-.141.047-.047-.28.134.02.04-.102-.06-.072-.114.081-.096-.41-.127.115-.074-.692-.113.047-.045-.11.235-.485.117.29.072-.047.012.191.033-.064.06-1.14.372-.655zm.173.086l.085-.003-.028.168-.121-.02.064-.145zm.794-.186l.057.161-.105-.053-.023.103-.038-.14.109-.07zm.847-.03l.043.122.093-.113-.025.277-.18-.124.07-.162zm-.656-.093l-.093.246-.1-.282.122.037.037-.148.034.147zm-.793-.145l.294.085.138-.062.11.195-.146.1.104.25-.164-.013.02.197-.135-.038-.098.17.05.118-.23.215-.124-.155.148-.7-.132-.043.038-.14.069.05.082-.105-.024-.124zm5.116-.052l.171.161.026.254-.26-.04-.057-.2.12-.175zm-4.256-.463l-.11.272-.063-.025.054-.25.12.003zM2.39 10.29l.033.545-.112-.389.079-.155zm.904-.428l.111.017-.08.135.11.006.125.38-.096.163.223.317-.108.332.05.72-.175.078-.005.074.13-.01-.206.119-.004.186-.405-.107.31.53-.3.087-.293-.085-.08.119-.166-.023-.1-.14.038-1.323-.11-.056.094.004.237-.313-.122-.11.087-.146-.107-.516.067.083.356-.446.15.12.144-.034.125-.161zm-.978-.377l.117.068.008.444-.098.233-.124.027.065.094-.1.169-.097-.388.103-.497.126-.15zm1.497-.024l-.13.148.016.16-.149-.03.038-.239.06.098.165-.137zm.11-2.854l.074.238-.05.446.052.156.077-.086.046.075-.075.118.17.23-.12.162-.158-.21-.142-.04-.082.122-.077-.155-.095.08.283.119.015.215.162-.027L4 8.163l.1-.066-.165.464.013.484-.15.26-.183-.033.043.11-.192-.238-.089.034-.07.16.177.25-.126.122-.026-.19-.119.011-.134.273.09.219-.145.034-.235-.188v-.352l.116-.006.033-.128-.177-.028.04-.352.123-.034-.059-.151.18-.06-.181-.07.087-.413.128-.102-.153-.099.095-.122-.1-.039.086-.322.132-.053-.115-.083h.12l.078-.136-.06-.206.278-.15-.057-.172.227-.04.117.082-.006-.224.108.154.092-.156zm-.066-.51l.058.245-.246-.14.188-.104zM6.866 0l-.141.334.005-.19L6.867 0z" fill="#777"/></svg>