<svg fill="none" height="40" width="35" xmlns="http://www.w3.org/2000/svg"><path d="M22.57 0l-.243.916.916 1.22-.997.503-1.212 1.412-1.284.523-.026.662.47.273-.938 1.108.223.21.574-.15.456.21 1.065.895 1.243.594.868 1.802-.56-.036.913 2.268 1.7 3.085-.208.692.352.27.074.458 1.39-.165-.001-.304.459-.143-.235-.654.489-.175.044-.341.182.665.778 1.127-.193.307.402-.362.246.487.29-.128.043.274.215-.286-.025.378.401-.327.35.386-.236.457.512-.142.106.187-.508.398-.012.728.41.231-.3.749.124.65 1.156.538.646.752-.009.393.662.58.215.527-.21.377-.395-.035.033-.253-.302.115-.112-.29-.775.513.402.843.768.35.287-.217.169.395.309-.309-.04.508.618.537-.321.78.398.293-.354.439-.001.57.434.688-.53.38v-.348l-.54-.625-.27.289-.571-.354-.65.593.125.373.307.072-.264.35-.457.091-.73.725-.702.074-.17.495.58-.385.316.335-.087.207.39.12-.137 1.311-.29.333-.273.066-.247-.308-.607.289-.116-.268-.436-.047-.473-1.328-.33.25.234.333-.132.394-.723-.283.26.282-.293.254-.81-.141-.533-.522.091.312-.24.001.726.398-.639.87.193.141-.277.14.146.944-.424.202.207.522.647.255-1.416.946-.437-.122-.474.77-.203-.122-.595.321-.965-.205-.567-.85-.372.068-.276-.237-.74.218-.096.696-.813-.235-.137.35-.501.049-.14-.303-.503.076-.761-.623L17 37.852l-.49.228.17.45-.368-.15-.42.789.27.281-.094.265-.82.285-.025-.785-.54-.305-.174-.425.422-.326-.018-.488.42-.349-.548-1.128-.304.245-.015.506-.72-.335.19-.258-.29-.298.258-.31-.22-.547-.217.47-.852.295-.837-1.209-.343.131-.043-.382-.36.12-.545-.436-.871.4-.375-.096-.574.611.08.232-1.442-.504-7.081-.349.041-1.002.81-.972-.004-.965-.095-.872-.977-1.4.363-.632.275-.054.084-.551.31.07.236-.563.567-.469.492.09-.109-.335.279-.268-.018-.492.201.093.107-.348.367-.006.916-1.143.56-.14-.221-.497.397-.194-.131-.221.342-.632.529.023.028-.522.57-.271.615-.79.762-.363.228-.977.724.27.56-.191.25-.447-.192-.465-.52.123-.11-.208-.328.049-.078.503-.379.127-.096-.476-.437-.222.073-1.77.46-.345 1.017-2.139-.176-.354-.684-.2.429-.429-.033-.448-.944-2.059.01-.296.38-.107.051-1.006.496-.761.252.062.42-.491.49-.09.066-.44.302.275.133-.199.693-.038.103-.564.527-.353.083-.355.604-.202.89.493 1.255-.722.544.198.349-.65.494.395 1.398-1.971.043-.456-.504-.917 1.046.175.645-.212-.05.302.253.098.125.457.315-.975 2.056-.928.388-.779.658-.143z" fill="#777"/></svg>