<svg fill="none" height="30" width="40" xmlns="http://www.w3.org/2000/svg"><path d="M19.036.196l.233.078.097-.221.316-.053.175.253.164-.038.114.176.524.207.425-.06.257-.158.035.107.082-.068.116.143.205-.004.244.31.178-.044.202.085-.047.174.252-.112.057.38-.119.185.053-.042.03.16.104-.003.184.247-.057.24.357.058-.043.141-.14-.003-.045.281.26.09-.083.05.05.098-.15.02-.046.202-.074-.077-.138.105.091.174-.167-.007-.025.187-.171.01.106.206-.265.08.276.293-.268.228-.067.445-.243.171.03.23-.165.05.07.312-.231-.158-.057.061.107.015-.008.08-.337.256.295.378-.028.253-.585.154-.13.144-.181-.118-.126.125-.432-.09-.142.153-.118-.06-.094.156.055.28-.198.148-.136-.033-.079.273-.158.132.163.193-.106.13.17.066.042.262.197.143-.056.114.278.132-.128.078.112.125-.217-.009-.308.21-.001.45-.74.594-.007.124.206.222.052.33.22.404-.044.547-.179.178.228.234-.013.145.43.308-.16.282.244.271.252-.11.322-.483.333.185.413.561.136.053.152-.097.062.073.066-.096.143.392.1-.15.298-.065.131-.391.27-.263.08-.44-.346-.128.024-.17.077.081.163-.062-.386-.717-.478.234-.125-.06-.043-.276.147-.222-.035-.457.072-.1-.073-.234-.438-.207-.067-.21-.144-.105.09-.487-.204-.183-.13-.812-.328-.178-.194.118-.122-.091.06-.079.121.057.115-.156.036.1.114-.013.074-.101-.074-.184.233.056-.07-.222.125.019.069-.127.115.054.11-.19.15-.019.071.096-.147.126-.057-.082.006.162.233.047.021.13.232-.027-.097-.275.318-.09-.264-.016-.138-.15.032-.189.113.125.334.052.072.058-.145.04.093.07.105-.175-.132-.217.218-.072-.008-.166.164-.012.03.092.063-.094.051.145-.116.053.088.206-.148.167.118.094.141-.053.084.318-.227.122-.166-.118.177-.01.083-.116-.34.063-.169.18.026.1-.235.088-.04.087.13-.01-.027.145.164.211.159-.582.233.064.115-.092.078.327-.134.114-.146-.06-.077.147-.072-.052-.018.453.348-.274.217.123-.005-.191-.108-.056.155-.162.032.145.202.114-.145.197-.013.22.097.024.188-.274.165.143-.057.104.097.166.228-.035-.057-.125.083-.044.098.189.146-.014.023-.123-.135-.038.1-.064.107.04.004.157.196-.057.052-.094-.163-.23-.024-.256.27.24.065-.069-.082-.079.05-.216-.136.055-.102-.144-.13.096.004-.197.158-.15.233.035-.069.197.101.145.066-.146.218.177.192-.124.15.068-.141.005-.147.224.071.063-.15.02-.118.193.07.287.073-.13.072.16.17-.136-.035.193.133.068.345-.478.11.152.06-.037-.022.117.674-.062.502.229-.037-.176.111-.086-.114-.454.252-.084.05.119.133-.195.247.017.11-.377.285-.064.182.088.295-.229.027-.164.234.057.049-.12.25.209-.03.497.337.26.096-.028.112.348-.33.148-.385.578.227.136.192-.115.107.082-.075-.242.342-.122.134.188.11-.003.026-.223-.109-.064.152.006.155.168.087-.12.202.097-.056-.419.173.161-.142.096.25.15.105-.036-.026.14.245-.09.222.051v-.114l-.231-.069v-.125l-.117-.072.456-.047.128.182.04-.416.19-.014.122.178-.182.185.026.265-.2.16.097.208-.265.133.056.137.149.05.227-.072.07.047-.012-.086.18-.08.083.236.281-.034-.033-.11.305.01.256.303.132-.334.171.12-.066.027.128-.027-.05-.308.273-.367-.072-.187.107-.314.17.009.037.25-.007-.238.077-.045.28.25.177-.054.037.117-.17.014.377.166.109-.161-.158-.153.102-.077.134.044-.07-.22.26-.043.07.139.17.043-.123.117.042.183.07-.113.07.098-.174.118.048.096.248-.096.106.182.23-.025.259.194.183-.046.259.134.056-.085.062.396-.071.194.286.312.208-.102.49.295h.215l.167-.163-.078.1.14.117-.093-.004-.075.215.187.055-.065-.118.106.002-.009-.077.08.063.024-.107-.063.533.106.018.047-.102.15.082-.01.283.163-.05.362.13-.035-.432.14-.113.076.143.317-.003.05.133.586-.243.173.124-.003.158.308-.007-.012.23h.165l.02.237-.25.056-.152-.074.014.215.095.068-.134.576.244.06.016.404-.065.283-.104.064-.03.422-.226-.097-.062.118.233.27.264.015-.11.283.251.08.048.211-.272.204-.418.072-.02.257-.301.168-.268-.007.079.15-.13.05-.256-.136-.6.039-.333-.092-.133.075-.122-.125.02-.105-.189.165-.533-.003-.204-.213-.228.052-.156-.1-.29.242-.32.062-.29-.142.018-.093-.28-.333-.233.093-.055.267.147.114.041.298.157.085.06.163-.201.305-.136-.004-.048.304-.15.057.033.168.13.022.006.217.097.083.12-.206.176.041.196-.22.312.108.103.172.407-.103.272.592.182-.051-.007.177.143.05.24-.099.057.208.122-.03.22.182.016.203-.214.283.039.426-.16.19-.223-.066-.196.183-.392.011-.09.183.1.416-.366.209-.017.12-.396.086-.04.194.107.335-.171.2.073.31-.101.078-.08-.14-.073.132-.23.087-.036.312-.114.023-.036.125-.44-.005-.18.23-.19-.002.045.131-.107-.059-.127.188-.081-.317-.255-.093-.087.21-.13-.088-.26.237-.174-.19-.32.242.018.724-.133.236-.298.086-.016.476-.205.09.15.087-.021.174-.163.016-.059-.27-.18-.03-.297.78-.125.02.082.104-.022.644-.093.282-.311-.052-.112.227-.042.615.096.563-.336.693-.29.03-.49-.358-.17-.023-.036.148-.169-.021-.065-.152.102-.151-.186-.406-.503-.488-.329-.068-.334.133-.234.258-.32.097-.26-.108-.093.158-.268-.031-.568-.352-.388.223-.505.064-.22-.639-.331-.085-.097.083-.208-.02-.548-.222-.04.359-.33-.048-.271.302-.359-.012-.069-.085-.37.13.067.157-.107.027.165.202-.04.13-.164-.065-.073.076-.434-.02-.057.108-.117-.131-.122.143-.615-.109-.083-.142-.265-.062-.358.131-.034-.492-.196-.082-.085.198-.11-.06-.149.094-.173-.113.014.117-.402.058-.053.296-1.052.547-.26.046-.375-.17-.027.106-.199.024-.073.103-.13.028-.065-.186-.109.125-.074-.107-.225-.001.015.13-.093.012-.444-.065-.081-.388-.141-.079-.098-.295.185-.115.5.132.182-.064-.164-.098.001-.316-.133-.364-.304-.346-.863.043-.014.19-.267.03-.078.118-.164-.164-.063.068-.389-.046-.78.6-.224-.07-.085.108-.174-.022-.034.281-.114.086.132.161-.035.115-.728.645.167.258-.172.44-.62-.017-.158.398-.348.183-.432.01-.09-.095-.407.05-.268-.392.241-.03.027-.086-.129-.244.068-.103-.276-.563-.211.104-.382-.202-.367-.028-.98.095-.293-.072-.278.11-.363-.106-.32.055-.168-.1-.271.069-.01-.13-.364.024-.478-.24-.262-.516-.71-.32-.505.096-1.059-.352-.03-.178-.187-.041-.035-.396.109-.5-.155-.225-.205-.082-.011-.273-.264.032-.153.202-.24.057-.056.156-.406.05-.25-.14.036-.16-.255-.142.378-.35-.119-.094-.111.038-.034-.567-.214-.045.072-.107-.148-.208.058-.368.182-.056.102.194.26.051.07-.225.093.045.141-.205.165.027-.183-.19-.225-.02-.063-.202-.019.167-.117.06-.076-.122-.097.177-.09-.232-.115.01.033-.211-.193.087L0 21.96l.146-.21.395.166.51-.63.543.006.086-.432.346-.633L1.9 19.9l-.232.122-.175-.167L1.4 19.7l.133-.076-.22-.41.312-.245.553.116.152-.215.284-.064.279-.281.211.034.138-.087v-.102l-.231.048.123-.097-.095-.148-.25.062-.34-.204-.084.091-.16-.23.24-.244.014-.223.18-.193.188-.015.21-.196.15.016.234-.237.082.07.194-.1.276-.343.154-.037-.147-.262.15-.26-.159-.693.072-.31.326-.47-.51-.919.113-.101-.053-.14-.112-.096-.533-.01.14-.17.016-.275.325-.48-.182.026-.007-.146-.172.039-.306-.139.204-.219-.04-.212.192-.07-.03-.13.153-.176-.19-.08.11-.543.426.705.228-.025.088-.204.172-.038-.03-.223h.123l-.06-.218-.411.045-.267-.13-.044.102.032-.304-.147-.38.104-.23.095.188.08-.064.129.107.032.184.562.164.06-.114.284-.036-.014-.384.222-.133-.024-.27.85.012.027.09-.148.094.084.218-.108.316-.173-.384-.043.074.122.196-.145.168.228.102.067-.089.447-.028-.032.145-.508.254-.122-.202-.235-.028.103-.184-.12.028-.07-.1-.032.13.23.237-.206.137-.096.21.143.23.23-.052.842.199.592-.148.144.172.667-.384.36.175-.052.294.098.092-.094.2.047.089.114-.087.246.209-.05.097.085.094-.155.12.095.085-.013.182-.282.187-.256-.282-.193.235.03.095-.13.02.05.288.125.187.21.036.071.286-.243.128-.137.407.15.003.06.146.211-.008-.01.18-.246.067-.08.32-.281.145-.143-.322-.157.168-.232.04-.077-.154-.24-.13-.226.34-.037.3.474.303.071.093-.091.077.12.128.316-.008.15.206.013-.292h.138l.052-.195-.142-.094.02-.135.216.07.124.18.078-.102.303-.106.082.055.443-.241-.07-.462.395-.252.4-.098-.061-.506.151-.237-.052-.209.193-.231.095.103-.053.13.096.342.306.005.201-.19.4.231.041-.097.135.05.076-.073.28.34.221-.086-.064-.1.144-.146-.042-.099.118.037.01-.103.35-.112.044.182-.13.277.123.11.246-.003.21.26.25-.094.2.04.075-.289.129-.088-.32-.324-.156-.34.051-.654-.167-.327.235-.075.061.12.152-.091.008.28.231.135.165-.086.139-.255.084.011.065-.218-.024-.364-.15-.344-.249-.105-.092-.17-.193.094-.283-.018-.209-.35.138-.102.432-.048.102-.116-.16-.076.032-.145-.135-.015-.168-.457.635-.35.381.11.17-.056.251-.225.423-.028.185.178.436-.148-.035-.378.124-.024-.053-.168-.259-.23.101-.245-.161-.027.114-.442-.256-.118-.102.065-.286.253-.069.314-.59-.143-.235.195-.298.02-.077.11-.222-.238-.229-.041-.332.093-.015-.122-.391-.047-.358-.22-.062-.214-.112-.056-.201-.443-.043-.724-.151-.112.021-.117.22-.08-.006-.325.29-.387.154.017.089-.193.397.032.133-.1-.03-.1.23-.056.155-.297-.045-.093.261-.324.448-.199.223-.252.26-.045.147-.24.36.003.396-.297.204-.314.446-.04-.022-.213.434-.041.66-.477.211.02.139-.208.313-.05.034-.23.269-.104.069-.214.243-.015.202-.192.426.1.016-.281.123-.085-.074-.217.348.028-.07-.181z" fill="#777"/></svg>