<svg fill="none" height="40" width="30" xmlns="http://www.w3.org/2000/svg"><path d="M22.175 30.892l.164.123-.148.212.082.15.818.755-1.014-.645-.605-.053-.073-.17.115-.108.34-.008zM14.332 5.797l.047.276-.269.25.536-.078.187.287.56.302.655-.04-.014-.331.222-.008.035-.296.123.013.04-.013.06.176.167-.044-.015-.43.261-.198.315-1.095.15.002-.237-.442.27-.288.306.1.062-.382.313.079.935-.301.042.49.307.008-.224-.121.15-.241.469-.065.642.46.601.05.26-.57.212-.143v-.233l.352-.042.292.327.335-.242-.049-.246.546-.18-.015-.156.171-.06-.067-.097-.182.13.102-.511-.362-.16.39-.152.768.092.093.325.226.16.634-.27.035.388.163-.032-.052.195.245-.107.154.2.291-.212-.457-.36.236-.226.185.153.147-.164.365.006.535-.24.2-.282-.15-.223.22-.1-.01-.247.242-.06.075-.21.217.024-.024-.128-.306-.061.029-.145.54-.059.595.435.562.015.328.648.26.146V.852l.235 1.103-.33.989-.316 2.629-.703 2.31-1.956 2.98-.339.914-.285-.17-.439.415-.152-.443.265-.088-.129-.109-.207.125-.193-.309-.249.243.393.105-.15.26.2.058.136.273-.069.122-.233-.219-.172.287.322.202.33-.164.017.265.213-.116.134.235-.311 1.796.582 1.533.118 2.777-.381-.075-.13.139-.37-.145.098.32-.301-.062.167.398.59.22.031.39.272.003.202 3.784-.314.154-.666.002-2.567-.305-.652.41-.473.851-.004.382.28.395-.807.771-.24.568-.918 1.066-.427.736-.261.93.295.538.892.771.912.138-.694.158-.996-.092-.589.116-1.045.348-.066.136-.436-.017-.111.136.107.118-.568.192-1.204.142-1.448 1.11-.29.562-.082.805.214-.037.309.203-.437.034-.463.673-.06.511.303-.054-.06.666-.468.562-.112.286.126.071-1.89.89-.411.515-1.23.302-.177.43-1.689-.323-1.577-1.286.183-.181.271.076-.178-.48.536-.43-.165-.405.439-.058.127-.263-.79-1.455.153.019.274-.297.203-.608-.275-.423-.174.012-.002-.227-.345-.472.359-.18.099-.378.401-.398-.108-.263.217-.216v-.598l.124-.266.195-.004.165-.752.318-.143.127-.334-.328-.217-.07-.502-.115.233-.147-.218-.355.205-.424-.286-.317-.013.274-.8.131-.045.011-.424.174-.063-.18-.19.106-.252-.176-.124.256-.56.174-.078-.078-.488-.433-.528.517-.194.148-.644-.243-.098.029-.242-.26-.38.055-.253-.425-.043-.798.444-.096.273-.487.288-.469-.117-.31-.31.014-.168-.185.091-.135-.128.141-.471-.23-.404.161-1.245-.178-.302.486-.022-.122-.336.301-.699-.066-.213-.344-.057-.164-.396-1.21-.457.412-.785.617-.08-.397-.038.011-.54-.341-.17.247-.472-.206-.165-.53.335-.974-.126-.25.166-.046-.369.674-.454-.014-.434-.207.036-.439-.255-.272-.383-.552-.184-.092.103-.308-.22-.272.11L0 14.54l.325-.209.193.21.375-.135.215-.292.322-.007-.01-.264.2.03.38-.315.26.203.142.443 1.337-.003.505.098.15.166.097-.2-.16-.31.51-1.023.431.133.095-.264.227-.014.196.14-.067.141.246-.09.108.382.271.09-.047-.37.893-.151.106-.138.31.03.296.29.24-.146.43.207.265-.65-.025-.363.173.092.054-.415 1.265-.042.209-.527.567-.704-.302-.454-1.873-.257.033-.439.52-.16.44-.516.116-.403.037-.507-.358.065.223-.23-.2-.054-.061-.375.2-.465-.054-.27.46-.122.172.186.183-.182.199.072.489-.906-.105-.347.954-.329.12.165-.181.252.112.06.15-.262.257.396.144.002.096-.372.229.026.531.533z" fill="#777"/></svg>