<svg fill="none" height="35" width="40" xmlns="http://www.w3.org/2000/svg"><path d="M27.696 12.853v.002zm.155-.009l-.093.595-.18-.258-.003-.192zm-.155.01l-.03-.15-.065.105-.3.024-.015-.175-.215.139.415.183-.006.248.109.034.158.358-1.826.9-1.12.444-.898-.255-.741.088-.638.319-.62 1.37.023.23-.695.741-.065.111.092.208-.226.2-.724.098-.207-.352.062-.186.09.002-.028-.139-.593-.208-.747.145-.532.256-.457.303-.349.391-.346 1.074-.507.81-.256 1.204.333 1.793.42.743-.345 2.408.575 1.558-.042.926.395 1.06-.721-1.317-.135-.061-.028.456-.147-.149.085-.147-.096-.018-.28.442.554.507.375.009.377.337v.272l-.18-.101-.229-.451-.39-.01-.414-.303-.377.04-.02.101.213.043.017.09-.15-.018-.053.146-.168.042.007.172-.154.07.105.155-.14.196-.371.168-.255-.005-.102.114-.129-.106-.164.157.318.25-.202.148-.108-.139-.17.075.036-.137-.114.023-.023-.27-.442.188-.157-.112-.065-.225-.535-.065-.27.106.251.111-.07.356.126-.09.047.066-.12.043.011.108-.38.125.034.171-.233.17-.203-.228-.245.029v.162l-.147.1-.181.397-.419-.035-.447-.32-.326.044-.105.168.156.085-.213-.006-.03-.341-.65.21-.218-.056-.043.266-.213-.07-.188.201.165.307h-.104l-.22.761-.181.138.01.3-.116.03-.042-.123-.027.01-.086-.01-.024.206-.155.006.01.23-.456.028-.39-.21-.13-.2-.372.054.186-.174-.032-.192.102-.486h.31l.211-.415.165.17.287-.029-.065-.349.176.028-.032-.351.265-.109-.013-.148.13-.081-.096-.115.302-.19-.141-.157.139-.087.044-.298-.11-.192-.174.226-.245-.27-.179.05-.057-.107-.166.08-.122-.085.152-.063-.21-.117.177-1.148-.815-.047-.222.159.053-.308-.167-.037-.024-.13-.375.069-.112-.164.029-.109.206.02.02-.133-.122-.12.167-.224-.024-.33-.362-.236-.016.175-.264-.045-.097.213-.106.002-.01-.311.178-.068-.058-.295-.274.275-.123-.175-.344-.02-.06.136.107.248-.258.127.012.119-.328.115-.02.298-.067-.148-.159.047.033-.13-.106.009-.193.105.131.104-.077.04-.128-.083-.198.14-.182-.142-.037.3-.125-.109-.022.14-.165.02.038-.625-.244-.011.08-.185-.326-.054-.197.102-.066-.162-.282.092-.083-.286-.112.172-.033-.101-.13.11-.009-.297-.105.09.032.221-.193.04.192.147.022.34-.357-.031-.176.113-.169-.168-.074.2-.095-.05-.12-.371.244-.407.12-.021-.027-.145-.524-.501.22-.22-.24-.32-.217-.02.038-.144.228-.035.024-.121.39.085-.057.386.077.231.487.057.131.261.83-.171.202.219-.027.442.21-.005.007.091.178-.151-.099-.139.115-.168-.275-.002.039-.197-.286-.08.346-.416-.028-.078-.226.116.016-.146.144-.027.065-.184.554.074-.021-.624-.208-.002-.062-.194-.283-.078-.053.153.203.43-.16.104-.141-.197.019-.203-.398-.035.008-.285-.246.104-.4-.138-.2.26-.034.383-.15.02-.128-.155-.559-.003-.064-.166.126-.113-.355-.27.02-.227.15-.12.142.072.011-.235.148-.172-.516.051-.213-.282-.14-.024L0 23.835l.19-.686-.09-.231.343-.128.078-.829-.182.067-.32-.097.103-.243-.052-.283.114-.1.399.321.525.095.095-.1.23.002-.029.124.19.028.375-.625-.11-.115.129-.033.002-.232-.186-.142.216-.197-.081-.138-.163-.021-.028-.195-.24.028-.171-.588-.285-.29.007-.08.274.033.013-.695.26-.099.175.144.044-.176-.409-.392.103-.461-.208-.045.219-.352.387-.215.528-.09 1.302.193.485.047.263.184.286-.053.415.11.443-.158.57.19.172-.222.137.299.23.09.08-.113h.195l.077-.268.29-.149.093-.532.298.011.447-.27.767.128.29-.222.483.377.307.015.307-.332.007-.361.125.019.049.224.189.025-.025-.4.1-.106.527-.226.729.15.21-.118.033-1.401.204-.278.802-.11.353-.25.754-.166.634-.353.177.205.258-.04.201.315.28-.022.45-.54.108-.357-.183-.203-.207-.057.09-.23.181-.304.44-.105.241-.312.096.167.305.013.195.286.09.445.197.084.071.23.134-.203.265.18.019.132.532.142.206-.13-.248-.194.052-.231.11-.026-.014-.275-.464-.113-.017.16-.648-.278.152-.227-.108-.223.14-.11.127.276.129.041.18-.174.07-.302.32-.157.482.263-.085.17.43-.049.534.204.132-.132.057-.5.215.002-.04-.29.43.114.276-.18.581-.097.094-.47.428.011.288-.37.235.175.22-.023.388-.457.04-.476.111-.16-.104-.105.341-.515.028-.2 1.028-.557.052-.109-.172-.214.214-.225.753-.295.365-.346.678.075.085.174.322.162.127-.035-.001-.326.155-.072.038.127.121-.014.018-.537.121.092.038-.077-.295-.295.133-.106.02-.266.176-.042.106-.17-.294-.056.25-.275-.115-.215.563-.67.126.186.12-.012.035.367.118-.017-.093.254.327.11.054.117-.174.209.021.194.23.218.16-.305.541-.235.132-.337-.086-.13.115-.105.229.157.198-.016.036.242.204.082.423-.175.181.049.024-.284-.104.053-.11-.134.37-.494-.284-.053-.028-.105.135-.098-.23-.01.018-.268.197-.08.41-.625.343.16.017.139.072-.264.233.046.068-.172.383-.056.013-.168.187.007.075-.152-.323-.357.168.019-.173-.18-.083.213-.119-.385.205-.107.313.073.233.267-.035-.285.13-.004.017-.11-.092-.257.069-.043.102.13.059-.061.04.211-.1-.01.01.083.18.03.074-.363.162.128.128-.204-.05-.17.145-.176.368.726.131.025-.087.141.2.355.172.055-.203-.374.237-.159.416 1.006.348.115.436-.03.274.305.206-.019.142-.145.904-.086.02-.396.13.083.047-.085-.101-.085.181.03-.112-.099.163.054.158-.146-.07-.129.126-.153-.128-.248.283.173.089-.21.383-.234.108.276.125-.222.21.013-.003-.152-.171.024-.14-.25.346.01.02-.185.185.03-.042.167.126.125.21.13-.89 1.033-.145.443-.44.42-.549.826-1.152 1.083-.005.223-2.027 1.03-.733.504-.215.363-.597.555v.176l-.328.448-.655.705-3.03 1.547-1.195.93-.354.45-.13.48-.113.056.036.23.278.242.212-.06-.057.595z" fill="#777"/></svg>